<svg width="60" height="57" viewBox="0 0 60 57" fill="none" xmlns="http://www.w3.org/2000/svg">
<g filter="url(#filter0_d_285_501)">
<path d="M40 23H16.28L23.54 14.28C23.8795 13.8716 24.0428 13.345 23.994 12.8162C23.9453 12.2873 23.6884 11.7995 23.28 11.46C22.8716 11.1205 22.345 10.9572 21.8162 11.006C21.2873 11.0547 20.7995 11.3116 20.46 11.72L10.46 23.72C10.3927 23.8154 10.3326 23.9157 10.28 24.02C10.28 24.12 10.28 24.18 10.14 24.28C10.0493 24.5093 10.0019 24.7534 10 25C10.0019 25.2466 10.0493 25.4907 10.14 25.72C10.14 25.82 10.14 25.88 10.28 25.98C10.3326 26.0843 10.3927 26.1846 10.46 26.28L20.46 38.28C20.648 38.5058 20.8835 38.6873 21.1497 38.8118C21.4159 38.9362 21.7062 39.0005 22 39C22.4673 39.0009 22.9202 38.8382 23.28 38.54C23.4825 38.3721 23.6499 38.1659 23.7726 37.9332C23.8953 37.7005 23.9709 37.4459 23.9951 37.1839C24.0192 36.922 23.9915 36.6578 23.9134 36.4066C23.8353 36.1554 23.7084 35.9221 23.54 35.72L16.28 27H40C40.5304 27 41.0391 26.7893 41.4142 26.4142C41.7893 26.0391 42 25.5304 42 25C42 24.4696 41.7893 23.9609 41.4142 23.5858C41.0391 23.2107 40.5304 23 40 23Z" fill="#FF8753"/>
<path d="M21.9998 40C22.7002 40.001 23.3788 39.7569 23.918 39.31L23.9182 39.3098C24.222 39.058 24.4731 38.7487 24.6572 38.3996C24.8412 38.0506 24.9546 37.6687 24.9908 37.2758C25.0271 36.8828 24.9854 36.4866 24.8683 36.1098C24.7512 35.7331 24.561 35.3832 24.3085 35.0802C24.3084 35.0801 24.3083 35.08 24.3082 35.0798L18.4138 28H40C40.7956 28 41.5587 27.6839 42.1213 27.1213C42.6839 26.5587 43 25.7956 43 25C43 24.2044 42.6839 23.4413 42.1213 22.8787C41.5587 22.3161 40.7956 22 40 22H18.4138L24.3085 14.9198L24.309 14.9192C24.818 14.3068 25.0629 13.5173 24.9898 12.7243C24.9167 11.9314 24.5316 11.2 23.9192 10.691C23.3068 10.182 22.5173 9.93708 21.7243 10.0102C20.9316 10.0833 20.2003 10.4682 19.6913 11.0804C19.6912 11.0805 19.6911 11.0807 19.691 11.0808L9.69178 23.0798L9.66592 23.1109L9.64264 23.1439C9.54709 23.2794 9.46165 23.4218 9.38701 23.5699L9.37203 23.5997L9.31855 23.6378L9.21003 23.9124C9.07405 24.2563 9.00285 24.6225 9.00003 24.9924L8.99997 25L9.00003 25.0076C9.00242 25.3208 9.05381 25.6312 9.15203 25.9278C9.16491 26.0205 9.19062 26.1349 9.24134 26.2508C9.30742 26.4019 9.39685 26.5205 9.48626 26.6128C9.53487 26.6961 9.58705 26.7773 9.64264 26.8561L9.66592 26.8892L9.69178 26.9202L19.6916 38.92C19.9737 39.2586 20.3269 39.531 20.7262 39.7177C21.1249 39.9041 21.5597 40.0005 21.9998 40ZM21.9998 40C21.9992 40 21.9986 40 21.998 40L22 39L22.0016 40C22.001 40 22.0004 40 21.9998 40ZM9.28 24.02C9.28 24.054 9.27792 24.0486 9.28 24.0187V24.02Z" stroke="white" stroke-width="2"/>
</g>
<defs>
<filter id="filter0_d_285_501" x="0" y="0.997494" width="60" height="56.0025" filterUnits="userSpaceOnUse" color-interpolation-filters="sRGB">
<feFlood flood-opacity="0" result="BackgroundImageFix"/>
<feColorMatrix in="SourceAlpha" type="matrix" values="0 0 0 0 0 0 0 0 0 0 0 0 0 0 0 0 0 0 127 0" result="hardAlpha"/>
<feOffset dx="4" dy="4"/>
<feGaussianBlur stdDeviation="6"/>
<feComposite in2="hardAlpha" operator="out"/>
<feColorMatrix type="matrix" values="0 0 0 0 0 0 0 0 0 0 0 0 0 0 0 0 0 0 0.09 0"/>
<feBlend mode="normal" in2="BackgroundImageFix" result="effect1_dropShadow_285_501"/>
<feBlend mode="normal" in="SourceGraphic" in2="effect1_dropShadow_285_501" result="shape"/>
</filter>
</defs>
</svg>
