<svg width="121" height="49" viewBox="0 0 121 49" fill="none" xmlns="http://www.w3.org/2000/svg">
<path d="M1.96766 23.1598L10.1802 12.918C10.8115 12.1307 11.7171 11.6111 12.7154 11.4634L88.192 0.295906C89.4495 0.109843 90.7206 0.532592 91.6162 1.43476L115.815 25.8109C118.049 28.0617 116.901 31.8934 113.796 32.5439L36.3999 48.7638C35.6636 48.9181 34.8987 48.8617 34.1931 48.6009L12.2413 40.4896C11.5363 40.2291 10.9189 39.7752 10.46 39.18L1.92055 28.1045C0.79353 26.6428 0.812996 24.5998 1.96766 23.1598Z" fill="#FF8753"/>
<path d="M32.9668 23.8164C32.9668 23.9727 32.9342 24.1517 32.8691 24.3535C32.8105 24.5553 32.7422 24.7507 32.6641 24.9395C32.5924 25.1217 32.5241 25.2878 32.459 25.4375C32.4004 25.5807 32.3743 25.6751 32.3809 25.7207C32.3288 25.7988 32.2637 25.8672 32.1855 25.9258C32.1074 25.9779 32.0391 26.043 31.9805 26.1211C31.9284 26.1927 31.8926 26.2806 31.873 26.3848C31.8535 26.4889 31.8047 26.5671 31.7266 26.6191C31.6875 26.6517 31.6354 26.6842 31.5703 26.7168C31.5052 26.7428 31.4368 26.7721 31.3652 26.8047C31.2936 26.8372 31.2253 26.8665 31.1602 26.8926C31.0951 26.9186 31.0495 26.9414 31.0234 26.9609C30.9714 26.9935 30.9258 27.0358 30.8867 27.0879C30.8542 27.1335 30.8118 27.179 30.7598 27.2246C30.7272 27.2376 30.6947 27.2441 30.6621 27.2441C30.6296 27.2376 30.597 27.2507 30.5645 27.2832L30.5059 27.4004C30.4603 27.4329 30.4082 27.446 30.3496 27.4395C30.291 27.4329 30.2357 27.4395 30.1836 27.459C29.9036 27.5892 29.6204 27.7161 29.334 27.8398C29.054 27.957 28.7578 28.0514 28.4453 28.123C28.4909 28.2337 28.556 28.3216 28.6406 28.3867C28.7253 28.4518 28.8164 28.5072 28.9141 28.5527C29.0182 28.5918 29.1224 28.6309 29.2266 28.6699C29.3372 28.709 29.4414 28.7578 29.5391 28.8164C29.5911 28.849 29.6335 28.8913 29.666 28.9434C29.7051 28.9954 29.7507 29.041 29.8027 29.0801C29.9655 29.1973 30.1348 29.3079 30.3105 29.4121C30.4928 29.5163 30.6719 29.6204 30.8477 29.7246C31.0234 29.8288 31.196 29.9395 31.3652 30.0566C31.541 30.1673 31.707 30.2943 31.8633 30.4375C32 30.457 32.1204 30.4961 32.2246 30.5547C32.3288 30.6068 32.4264 30.6719 32.5176 30.75C32.6087 30.8216 32.6934 30.903 32.7715 30.9941C32.8561 31.0853 32.9408 31.1797 33.0254 31.2773V31.3848C33.0254 31.5671 33.0156 31.7168 32.9961 31.834C32.9766 31.9512 32.9375 32.0488 32.8789 32.127C32.8203 32.2051 32.7389 32.2702 32.6348 32.3223C32.5371 32.3809 32.4069 32.4395 32.2441 32.498C32.1921 32.5176 32.14 32.5339 32.0879 32.5469C32.0358 32.5664 31.9805 32.5762 31.9219 32.5762C31.8307 32.5762 31.7201 32.5762 31.5898 32.5762C31.4661 32.5827 31.362 32.5762 31.2773 32.5566C31.2578 32.5501 31.2122 32.5306 31.1406 32.498C31.0755 32.4655 31.0007 32.4264 30.916 32.3809C30.8379 32.3418 30.763 32.3027 30.6914 32.2637C30.6263 32.2246 30.584 32.1953 30.5645 32.1758C30.4733 32.0977 30.3919 32.0065 30.3203 31.9023C30.2487 31.7982 30.1641 31.7168 30.0664 31.6582C29.9427 31.5866 29.8092 31.5443 29.666 31.5312C29.5293 31.5182 29.4023 31.4759 29.2852 31.4043C29.1419 31.3197 29.0215 31.2155 28.9238 31.0918C28.8262 30.9616 28.7057 30.8509 28.5625 30.7598C28.4388 30.6816 28.2988 30.6165 28.1426 30.5645C27.9928 30.5124 27.8529 30.4505 27.7227 30.3789C27.612 30.3008 27.5143 30.2064 27.4297 30.0957C27.3516 29.9785 27.2572 29.8743 27.1465 29.7832C27.0944 29.7376 27.0326 29.7051 26.9609 29.6855C26.8893 29.666 26.8242 29.6367 26.7656 29.5977C26.7135 29.5586 26.6712 29.5065 26.6387 29.4414C26.6061 29.3763 26.554 29.3438 26.4824 29.3438H26.4434C26.3522 29.4349 26.3066 29.5521 26.3066 29.6953C26.3066 29.8646 26.3294 30.0339 26.375 30.2031C26.4206 30.3659 26.4434 30.5319 26.4434 30.7012C26.4434 30.7728 26.4271 30.8477 26.3945 30.9258C26.362 30.9974 26.3392 31.069 26.3262 31.1406C26.3001 31.2188 26.2936 31.3001 26.3066 31.3848C26.3197 31.4629 26.3262 31.541 26.3262 31.6191C26.3262 31.7168 26.2936 31.8145 26.2285 31.9121C26.1634 32.0098 26.082 32.0977 25.9844 32.1758C25.8867 32.2539 25.7826 32.3158 25.6719 32.3613C25.5612 32.4134 25.457 32.4395 25.3594 32.4395C25.2227 32.4395 25.0827 32.4134 24.9395 32.3613C24.7962 32.3158 24.6497 32.2767 24.5 32.2441C24.4219 32.1009 24.347 31.9544 24.2754 31.8047C24.2103 31.6549 24.1777 31.4987 24.1777 31.3359C24.1777 31.2773 24.1842 31.2253 24.1973 31.1797C24.2103 31.1276 24.2266 31.0755 24.2461 31.0234C24.1615 30.8216 24.1061 30.6165 24.0801 30.4082C24.054 30.1999 24.041 29.9915 24.041 29.7832C24.041 29.4967 24.0671 29.2201 24.1191 28.9531C24.1777 28.6797 24.207 28.403 24.207 28.123C24.207 28.11 24.2038 28.097 24.1973 28.084C24.1973 28.0645 24.1908 28.0482 24.1777 28.0352L24.0605 27.9766C24.0475 27.944 24.0443 27.9147 24.0508 27.8887C24.0573 27.8626 24.0605 27.8333 24.0605 27.8008C24.0605 27.7552 24.0573 27.6999 24.0508 27.6348C24.0443 27.5697 24.0312 27.5046 24.0117 27.4395C23.9987 27.3743 23.9792 27.3158 23.9531 27.2637C23.9271 27.2051 23.8978 27.1628 23.8652 27.1367C23.9564 26.987 23.9987 26.8242 23.9922 26.6484C23.9857 26.4661 23.9824 26.2839 23.9824 26.1016C23.9824 25.9583 24.0052 25.8216 24.0508 25.6914C24.0964 25.5612 24.1191 25.4245 24.1191 25.2812C24.1191 25.0729 24.1094 24.8613 24.0898 24.6465C24.0703 24.4251 24.0605 24.2103 24.0605 24.002C24.0605 23.8001 24.028 23.6113 23.9629 23.4355C23.8978 23.2533 23.8652 23.0677 23.8652 22.8789C23.8652 22.8008 23.8815 22.7292 23.9141 22.6641C23.9466 22.5924 23.9694 22.5176 23.9824 22.4395C24.015 22.3158 24.0215 22.1921 24.002 22.0684C23.9889 21.9447 23.9824 21.821 23.9824 21.6973C23.9824 21.6387 23.9954 21.5996 24.0215 21.5801C24.0475 21.554 24.0605 21.515 24.0605 21.4629C24.0605 21.3913 24.0378 21.3132 23.9922 21.2285C23.9466 21.1439 23.9238 21.0462 23.9238 20.9355C23.9238 20.7272 23.9336 20.5189 23.9531 20.3105C23.9727 20.0957 23.9824 19.8776 23.9824 19.6562C23.9824 19.5586 23.9987 19.4609 24.0312 19.3633C24.0638 19.2656 24.0964 19.1712 24.1289 19.0801C24.1615 18.9824 24.1842 18.888 24.1973 18.7969C24.2168 18.6992 24.2103 18.6016 24.1777 18.5039C24.2233 18.4518 24.2754 18.4225 24.334 18.416C24.3926 18.4095 24.4479 18.3965 24.5 18.377C24.6042 18.3249 24.7018 18.2695 24.793 18.2109C24.8841 18.1523 24.9818 18.1035 25.0859 18.0645C25.1966 18.0124 25.304 17.9798 25.4082 17.9668C25.5124 17.9538 25.623 17.9375 25.7402 17.918C25.7923 17.9049 25.8379 17.8822 25.877 17.8496C25.916 17.8171 25.9648 17.8008 26.0234 17.8008C26.0755 17.8008 26.1243 17.8105 26.1699 17.8301C26.222 17.8496 26.2741 17.8594 26.3262 17.8594C26.3587 17.8073 26.3848 17.7845 26.4043 17.791C26.4303 17.7975 26.4694 17.8008 26.5215 17.8008C26.5605 17.8008 26.6061 17.7943 26.6582 17.7812C26.7103 17.7682 26.7624 17.7552 26.8145 17.7422C26.8665 17.7292 26.9154 17.7194 26.9609 17.7129C27.0065 17.7064 27.0456 17.7096 27.0781 17.7227C27.1432 17.7227 27.2051 17.7129 27.2637 17.6934C27.3223 17.6738 27.3809 17.6641 27.4395 17.6641C27.5111 17.6641 27.5697 17.6836 27.6152 17.7227C27.6673 17.7617 27.7292 17.7878 27.8008 17.8008C27.8854 17.8138 27.9701 17.8138 28.0547 17.8008C28.1393 17.7878 28.2207 17.7812 28.2988 17.7812C28.3965 17.7812 28.4811 17.791 28.5527 17.8105C28.6309 17.8301 28.7025 17.8561 28.7676 17.8887C28.8392 17.9147 28.9108 17.944 28.9824 17.9766C29.054 18.0091 29.1354 18.0384 29.2266 18.0645C29.3568 18.097 29.4935 18.1133 29.6367 18.1133C29.7799 18.1068 29.9232 18.1296 30.0664 18.1816C30.1445 18.2142 30.2292 18.2533 30.3203 18.2988C30.4115 18.3379 30.4928 18.3835 30.5645 18.4355C30.6165 18.4616 30.6523 18.4941 30.6719 18.5332C30.6914 18.5723 30.7207 18.6081 30.7598 18.6406C30.8249 18.6732 30.8867 18.6862 30.9453 18.6797C31.0039 18.6732 31.0495 18.6797 31.082 18.6992C31.1276 18.7253 31.196 18.7871 31.2871 18.8848C31.3783 18.9824 31.4759 19.0898 31.5801 19.207C31.6908 19.3242 31.7949 19.4382 31.8926 19.5488C31.9902 19.6595 32.0684 19.7441 32.127 19.8027L32.0977 19.8809C32.0977 19.959 32.1139 20.0306 32.1465 20.0957C32.1855 20.1608 32.2311 20.2227 32.2832 20.2812C32.3353 20.3333 32.3874 20.3887 32.4395 20.4473C32.4915 20.5059 32.5339 20.571 32.5664 20.6426C32.599 20.6816 32.612 20.7305 32.6055 20.7891C32.599 20.8411 32.612 20.8997 32.6445 20.9648C32.6966 21.0755 32.7422 21.1862 32.7812 21.2969C32.8203 21.401 32.8822 21.502 32.9668 21.5996C32.9798 21.6582 32.9766 21.7233 32.957 21.7949C32.944 21.86 32.9375 21.9284 32.9375 22C32.9375 22.1302 32.9635 22.2474 33.0156 22.3516C33.0742 22.4557 33.1035 22.5794 33.1035 22.7227C33.1035 22.9115 33.0807 23.0905 33.0352 23.2598C32.9896 23.429 32.9668 23.6146 32.9668 23.8164ZM30.125 20.7012L29.9785 20.6426C29.9199 20.5579 29.8483 20.4635 29.7637 20.3594C29.679 20.2552 29.5846 20.1966 29.4805 20.1836C29.4544 20.138 29.4219 20.1152 29.3828 20.1152C29.3503 20.1152 29.3177 20.1283 29.2852 20.1543C29.2591 20.1738 29.2233 20.1836 29.1777 20.1836C29.1061 20.1836 29.0215 20.1641 28.9238 20.125C28.8262 20.0794 28.6862 20.0566 28.5039 20.0566C28.4518 20.0566 28.39 20.0371 28.3184 19.998C28.2467 19.959 28.1816 19.9329 28.123 19.9199C27.9733 19.9004 27.8073 19.8874 27.625 19.8809C27.4427 19.8678 27.2767 19.8613 27.127 19.8613C27.0618 19.8613 27.0098 19.8776 26.9707 19.9102C26.9316 19.9427 26.8828 19.9655 26.8242 19.9785C26.7591 19.998 26.681 20.0111 26.5898 20.0176C26.4987 20.0241 26.4108 20.0404 26.3262 20.0664C26.248 20.0859 26.1797 20.1217 26.1211 20.1738C26.069 20.2194 26.043 20.2943 26.043 20.3984C26.043 20.5221 26.0658 20.6361 26.1113 20.7402C26.1569 20.8444 26.1797 20.9583 26.1797 21.082C26.1797 21.2122 26.1569 21.3392 26.1113 21.4629C26.0658 21.5866 26.043 21.7135 26.043 21.8438C26.043 22.0911 26.056 22.3418 26.082 22.5957C26.1081 22.8431 26.1211 23.097 26.1211 23.3574C26.1211 23.5853 26.1406 23.8099 26.1797 24.0312C26.2188 24.2461 26.2383 24.4674 26.2383 24.6953C26.2383 24.8646 26.2253 25.0371 26.1992 25.2129C26.1732 25.3822 26.1602 25.5514 26.1602 25.7207C26.1602 25.7988 26.1634 25.877 26.1699 25.9551C26.1829 26.0332 26.2057 26.1081 26.2383 26.1797C26.3424 26.1406 26.4531 26.1178 26.5703 26.1113C26.694 26.0983 26.8177 26.0951 26.9414 26.1016C27.0651 26.1016 27.1888 26.1081 27.3125 26.1211C27.4362 26.1276 27.5534 26.1276 27.6641 26.1211H27.918C27.9766 26.069 28.0352 26.0332 28.0938 26.0137C28.1589 25.9876 28.224 25.9681 28.2891 25.9551C28.3607 25.9421 28.429 25.929 28.4941 25.916C28.5658 25.903 28.6341 25.8835 28.6992 25.8574C28.7578 25.8314 28.8164 25.7923 28.875 25.7402C28.9336 25.6882 28.9889 25.6426 29.041 25.6035C29.0996 25.5579 29.1582 25.5221 29.2168 25.4961C29.2819 25.4635 29.3503 25.4505 29.4219 25.457H29.5391C29.5651 25.3789 29.6042 25.3105 29.6562 25.252C29.7083 25.1934 29.7637 25.138 29.8223 25.0859C29.8809 25.0273 29.9362 24.9688 29.9883 24.9102C30.0469 24.8451 30.0924 24.7734 30.125 24.6953C30.2031 24.6758 30.278 24.64 30.3496 24.5879C30.4212 24.5293 30.4733 24.4609 30.5059 24.3828L30.6426 24.3047V24.1777L30.7598 24.1191C30.7923 24.0605 30.8053 24.0052 30.7988 23.9531C30.7988 23.901 30.7988 23.8424 30.7988 23.7773C30.7988 23.7318 30.8086 23.6732 30.8281 23.6016C30.8542 23.5234 30.8802 23.4388 30.9062 23.3477C30.9388 23.25 30.9648 23.1458 30.9844 23.0352C31.0104 22.918 31.0234 22.7943 31.0234 22.6641C31.0234 22.599 31.0169 22.5469 31.0039 22.5078C30.9909 22.4688 30.9746 22.4362 30.9551 22.4102C30.9355 22.3776 30.9128 22.3451 30.8867 22.3125C30.8607 22.2799 30.8379 22.2344 30.8184 22.1758C30.8053 22.1302 30.7956 22.0781 30.7891 22.0195C30.7826 21.9544 30.776 21.8926 30.7695 21.834C30.7695 21.7754 30.763 21.7201 30.75 21.668C30.7435 21.6159 30.7272 21.5736 30.7012 21.541C30.61 21.3913 30.5091 21.2513 30.3984 21.1211C30.2878 20.9909 30.1966 20.8509 30.125 20.7012Z" fill="white"/>
<path d="M44.2559 26.1016C44.2559 26.3424 44.2363 26.5638 44.1973 26.7656C44.1647 26.9609 44.1322 27.1725 44.0996 27.4004C44.0801 27.5436 44.0703 27.6836 44.0703 27.8203C44.0768 27.957 44.0638 28.097 44.0312 28.2402C43.9987 28.3509 43.9531 28.4583 43.8945 28.5625C43.8359 28.6602 43.7741 28.7578 43.709 28.8555C43.6439 28.9531 43.5788 29.054 43.5137 29.1582C43.4551 29.2559 43.4095 29.3568 43.377 29.4609C43.3509 29.5456 43.3314 29.6335 43.3184 29.7246C43.3118 29.8158 43.2988 29.9069 43.2793 29.998C43.2598 30.0892 43.2337 30.1771 43.2012 30.2617C43.1686 30.3464 43.1198 30.4245 43.0547 30.4961C43.0156 30.5482 42.9635 30.5905 42.8984 30.623C42.8398 30.6491 42.7845 30.6882 42.7324 30.7402C42.6803 30.7988 42.6478 30.8672 42.6348 30.9453C42.6217 31.0169 42.5957 31.082 42.5566 31.1406H42.4199C42.3874 31.1732 42.3678 31.2122 42.3613 31.2578C42.3548 31.3034 42.332 31.3522 42.293 31.4043C42.2148 31.4824 42.0977 31.5703 41.9414 31.668C41.7852 31.7656 41.6094 31.8633 41.4141 31.9609C41.2188 32.0586 41.0104 32.153 40.7891 32.2441C40.5677 32.3353 40.3529 32.4167 40.1445 32.4883C39.9427 32.5599 39.7507 32.6152 39.5684 32.6543C39.3926 32.6999 39.2493 32.7227 39.1387 32.7227C39.054 32.7227 38.9922 32.7129 38.9531 32.6934C38.9206 32.6803 38.8945 32.6608 38.875 32.6348C38.8555 32.6152 38.8359 32.5957 38.8164 32.5762C38.7969 32.5632 38.7578 32.5566 38.6992 32.5566C38.6146 32.5566 38.5332 32.5664 38.4551 32.5859C38.377 32.6055 38.2988 32.6152 38.2207 32.6152C38.1165 32.6152 38.0189 32.5827 37.9277 32.5176C37.8431 32.459 37.752 32.3939 37.6543 32.3223C37.5566 32.2507 37.446 32.1823 37.3223 32.1172C37.1986 32.0586 37.0488 32.0326 36.873 32.0391C36.847 32.0065 36.8112 31.9609 36.7656 31.9023C36.7266 31.8372 36.6842 31.7721 36.6387 31.707C36.5996 31.6419 36.5573 31.5833 36.5117 31.5312C36.4727 31.4727 36.4401 31.4303 36.4141 31.4043C36.362 31.3522 36.3001 31.3197 36.2285 31.3066C36.1634 31.2871 36.0983 31.2513 36.0332 31.1992C36.0007 31.1797 35.9779 31.1504 35.9648 31.1113C35.9583 31.0723 35.9355 31.0365 35.8965 31.0039C35.8639 30.9844 35.8314 30.9779 35.7988 30.9844C35.7663 30.9844 35.7402 30.9681 35.7207 30.9355C35.6947 30.916 35.6719 30.8835 35.6523 30.8379C35.6393 30.7923 35.623 30.7467 35.6035 30.7012C35.584 30.6491 35.5579 30.6035 35.5254 30.5645C35.4993 30.5254 35.457 30.5026 35.3984 30.4961C35.3984 30.3984 35.3724 30.3105 35.3203 30.2324C35.2682 30.1478 35.2259 30.0632 35.1934 29.9785C35.1608 29.8874 35.138 29.7995 35.125 29.7148C35.1185 29.6237 35.0957 29.5391 35.0566 29.4609C35.0241 29.3828 34.985 29.3145 34.9395 29.2559C34.8939 29.1973 34.8483 29.1419 34.8027 29.0898C34.7637 29.0378 34.7279 28.9792 34.6953 28.9141C34.6693 28.8424 34.6562 28.7578 34.6562 28.6602C34.6562 28.5169 34.6693 28.377 34.6953 28.2402C34.7214 28.1035 34.7344 27.9635 34.7344 27.8203C34.7344 27.6706 34.7116 27.5208 34.666 27.3711C34.6204 27.2214 34.5977 27.0651 34.5977 26.9023C34.5977 26.5964 34.6335 26.2969 34.7051 26.0039C34.7767 25.7044 34.8125 25.4017 34.8125 25.0957C34.8125 24.9655 34.7962 24.8418 34.7637 24.7246C34.7311 24.6009 34.7148 24.474 34.7148 24.3438C34.7148 24.2526 34.7311 24.1615 34.7637 24.0703C34.7962 23.9792 34.8548 23.901 34.9395 23.8359C34.9525 23.8164 34.9557 23.7936 34.9492 23.7676C34.9427 23.7415 34.9395 23.7188 34.9395 23.6992C34.9395 23.6797 34.9492 23.6406 34.9688 23.582C34.9883 23.5234 35.0078 23.4616 35.0273 23.3965C35.0534 23.3249 35.0762 23.2533 35.0957 23.1816C35.1152 23.11 35.1283 23.0547 35.1348 23.0156C35.1413 22.9505 35.1543 22.8984 35.1738 22.8594C35.1999 22.8203 35.2292 22.7878 35.2617 22.7617C35.3008 22.7292 35.3366 22.6999 35.3691 22.6738C35.4017 22.6413 35.431 22.6022 35.457 22.5566C35.5091 22.4655 35.5286 22.3711 35.5156 22.2734C35.5026 22.1693 35.5221 22.0716 35.5742 21.9805L35.7207 21.9219C35.7663 21.8177 35.8021 21.7461 35.8281 21.707C35.8542 21.668 35.877 21.6419 35.8965 21.6289C35.916 21.6094 35.9355 21.5964 35.9551 21.5898C35.9746 21.5833 36.0007 21.5605 36.0332 21.5215C36.0527 21.502 36.0625 21.4759 36.0625 21.4434C36.0625 21.4043 36.0723 21.3685 36.0918 21.3359C36.1243 21.2839 36.1764 21.2415 36.248 21.209C36.3197 21.1764 36.375 21.1341 36.4141 21.082C36.4531 21.0299 36.4824 20.9746 36.502 20.916C36.528 20.8509 36.5671 20.7988 36.6191 20.7598C36.6777 20.7012 36.7591 20.6556 36.8633 20.623C36.9674 20.5905 37.0586 20.5482 37.1367 20.4961C37.2083 20.444 37.2669 20.3887 37.3125 20.3301C37.3646 20.265 37.4329 20.2161 37.5176 20.1836C37.5632 20.1641 37.6283 20.1413 37.7129 20.1152C37.7975 20.0892 37.8854 20.0664 37.9766 20.0469C38.0742 20.0273 38.1654 20.0111 38.25 19.998C38.3346 19.985 38.403 19.9785 38.4551 19.9785C38.6048 19.9785 38.748 19.998 38.8848 20.0371C39.028 20.0762 39.1712 20.0957 39.3145 20.0957C39.4382 20.0957 39.5553 20.0859 39.666 20.0664C39.7767 20.0469 39.8874 20.0371 39.998 20.0371C40.278 20.0371 40.5189 20.0664 40.7207 20.125C40.929 20.1771 41.1081 20.2487 41.2578 20.3398C41.4141 20.4245 41.5508 20.5189 41.668 20.623C41.7917 20.7272 41.9056 20.8281 42.0098 20.9258C42.1139 21.0169 42.2181 21.1016 42.3223 21.1797C42.4264 21.2578 42.5436 21.3099 42.6738 21.3359C42.7129 21.4596 42.7845 21.554 42.8887 21.6191C42.9993 21.6842 43.1003 21.7591 43.1914 21.8438C43.2044 21.9479 43.2305 22.0456 43.2695 22.1367C43.3086 22.2279 43.3509 22.319 43.3965 22.4102C43.4421 22.4948 43.4876 22.5794 43.5332 22.6641C43.5788 22.7487 43.6146 22.8398 43.6406 22.9375C43.6732 23.0417 43.6862 23.1426 43.6797 23.2402C43.6732 23.3379 43.6862 23.4323 43.7188 23.5234C43.7578 23.6797 43.8099 23.8327 43.875 23.9824C43.9401 24.1257 43.9922 24.2721 44.0312 24.4219C44.0573 24.5195 44.0703 24.6172 44.0703 24.7148C44.0703 24.8125 44.0801 24.9069 44.0996 24.998C44.1387 25.1999 44.1745 25.3822 44.207 25.5449C44.2396 25.7077 44.2559 25.8932 44.2559 26.1016ZM42.2148 25.9844C42.2148 25.8932 42.1921 25.8151 42.1465 25.75C42.1074 25.6784 42.0716 25.6003 42.0391 25.5156C41.9674 25.3268 41.9284 25.1283 41.9219 24.9199C41.9219 24.7051 41.8926 24.5 41.834 24.3047C41.7949 24.168 41.7168 24.0117 41.5996 23.8359C41.4824 23.6602 41.349 23.4876 41.1992 23.3184C41.0495 23.1491 40.8932 22.9961 40.7305 22.8594C40.5742 22.7161 40.431 22.6152 40.3008 22.5566L40.2129 22.4199C40.1738 22.4004 40.125 22.3906 40.0664 22.3906C40.0078 22.3906 39.9525 22.3809 39.9004 22.3613C39.7507 22.3092 39.6074 22.2572 39.4707 22.2051C39.334 22.1465 39.181 22.1172 39.0117 22.1172C38.7904 22.1172 38.6178 22.153 38.4941 22.2246C38.3704 22.2897 38.263 22.3646 38.1719 22.4492C38.0807 22.5273 37.9928 22.6022 37.9082 22.6738C37.8236 22.7389 37.7129 22.7682 37.5762 22.7617C37.5762 22.8659 37.5534 22.957 37.5078 23.0352C37.4688 23.1068 37.4199 23.1751 37.3613 23.2402C37.3027 23.3053 37.2441 23.3704 37.1855 23.4355C37.127 23.5007 37.0846 23.5755 37.0586 23.6602C37.0456 23.7122 37.0293 23.8099 37.0098 23.9531C36.9967 24.0964 36.9837 24.2559 36.9707 24.4316C36.9577 24.6009 36.9479 24.7637 36.9414 24.9199C36.9349 25.0762 36.9316 25.1901 36.9316 25.2617C36.9316 25.2943 36.9251 25.3268 36.9121 25.3594C36.8991 25.3919 36.8861 25.4245 36.873 25.457C36.86 25.6458 36.8503 25.8379 36.8438 26.0332C36.8372 26.222 36.834 26.4108 36.834 26.5996C36.834 26.6712 36.8438 26.7819 36.8633 26.9316C36.8828 27.0749 36.9089 27.2409 36.9414 27.4297C36.974 27.612 37.0098 27.8073 37.0488 28.0156C37.0879 28.2174 37.127 28.4095 37.166 28.5918C37.2116 28.7741 37.2539 28.9401 37.293 29.0898C37.332 29.2331 37.3678 29.3372 37.4004 29.4023C37.4329 29.474 37.472 29.5293 37.5176 29.5684C37.5632 29.6074 37.6022 29.6595 37.6348 29.7246C37.6543 29.7572 37.6641 29.7897 37.6641 29.8223C37.6641 29.8548 37.6803 29.8874 37.7129 29.9199C37.778 29.9915 37.8561 30.0469 37.9473 30.0859C38.0449 30.125 38.1361 30.1771 38.2207 30.2422C38.3249 30.2682 38.3997 30.304 38.4453 30.3496C38.4909 30.3887 38.5397 30.431 38.5918 30.4766C38.6504 30.5156 38.7253 30.5514 38.8164 30.584C38.9141 30.61 39.0671 30.623 39.2754 30.623C39.3796 30.623 39.4447 30.61 39.4707 30.584C39.5033 30.5579 39.5586 30.5286 39.6367 30.4961C39.7083 30.4635 39.7799 30.4473 39.8516 30.4473C39.9232 30.4473 39.985 30.4375 40.0371 30.418C40.1478 30.3008 40.278 30.1901 40.4277 30.0859C40.584 29.9818 40.7077 29.8613 40.7988 29.7246C40.8314 29.679 40.8444 29.6335 40.8379 29.5879C40.8314 29.5423 40.8444 29.5 40.877 29.4609C40.8965 29.4284 40.9258 29.4089 40.9648 29.4023C41.0039 29.3958 41.0332 29.3763 41.0527 29.3438C41.1439 29.2135 41.209 29.0638 41.248 28.8945C41.2936 28.7188 41.362 28.5592 41.4531 28.416C41.4922 28.3444 41.5475 28.2858 41.6191 28.2402C41.6908 28.1882 41.7428 28.1198 41.7754 28.0352C41.8014 27.9635 41.821 27.8822 41.834 27.791C41.847 27.6999 41.8535 27.6055 41.8535 27.5078C41.86 27.4102 41.8633 27.3125 41.8633 27.2148C41.8698 27.1172 41.8796 27.026 41.8926 26.9414C41.9056 26.8698 41.9284 26.7917 41.9609 26.707C42 26.6159 42.0358 26.528 42.0684 26.4434C42.1074 26.3522 42.14 26.2676 42.166 26.1895C42.1986 26.1048 42.2148 26.0365 42.2148 25.9844Z" fill="white"/>
<path d="M55.291 26.1016C55.291 26.3424 55.2715 26.5638 55.2324 26.7656C55.1999 26.9609 55.1673 27.1725 55.1348 27.4004C55.1152 27.5436 55.1055 27.6836 55.1055 27.8203C55.112 27.957 55.099 28.097 55.0664 28.2402C55.0339 28.3509 54.9883 28.4583 54.9297 28.5625C54.8711 28.6602 54.8092 28.7578 54.7441 28.8555C54.679 28.9531 54.6139 29.054 54.5488 29.1582C54.4902 29.2559 54.4447 29.3568 54.4121 29.4609C54.3861 29.5456 54.3665 29.6335 54.3535 29.7246C54.347 29.8158 54.334 29.9069 54.3145 29.998C54.2949 30.0892 54.2689 30.1771 54.2363 30.2617C54.2038 30.3464 54.1549 30.4245 54.0898 30.4961C54.0508 30.5482 53.9987 30.5905 53.9336 30.623C53.875 30.6491 53.8197 30.6882 53.7676 30.7402C53.7155 30.7988 53.6829 30.8672 53.6699 30.9453C53.6569 31.0169 53.6309 31.082 53.5918 31.1406H53.4551C53.4225 31.1732 53.403 31.2122 53.3965 31.2578C53.39 31.3034 53.3672 31.3522 53.3281 31.4043C53.25 31.4824 53.1328 31.5703 52.9766 31.668C52.8203 31.7656 52.6445 31.8633 52.4492 31.9609C52.2539 32.0586 52.0456 32.153 51.8242 32.2441C51.6029 32.3353 51.388 32.4167 51.1797 32.4883C50.9779 32.5599 50.7858 32.6152 50.6035 32.6543C50.4277 32.6999 50.2845 32.7227 50.1738 32.7227C50.0892 32.7227 50.0273 32.7129 49.9883 32.6934C49.9557 32.6803 49.9297 32.6608 49.9102 32.6348C49.8906 32.6152 49.8711 32.5957 49.8516 32.5762C49.832 32.5632 49.793 32.5566 49.7344 32.5566C49.6497 32.5566 49.5684 32.5664 49.4902 32.5859C49.4121 32.6055 49.334 32.6152 49.2559 32.6152C49.1517 32.6152 49.054 32.5827 48.9629 32.5176C48.8783 32.459 48.7871 32.3939 48.6895 32.3223C48.5918 32.2507 48.4811 32.1823 48.3574 32.1172C48.2337 32.0586 48.084 32.0326 47.9082 32.0391C47.8822 32.0065 47.8464 31.9609 47.8008 31.9023C47.7617 31.8372 47.7194 31.7721 47.6738 31.707C47.6348 31.6419 47.5924 31.5833 47.5469 31.5312C47.5078 31.4727 47.4753 31.4303 47.4492 31.4043C47.3971 31.3522 47.3353 31.3197 47.2637 31.3066C47.1986 31.2871 47.1335 31.2513 47.0684 31.1992C47.0358 31.1797 47.013 31.1504 47 31.1113C46.9935 31.0723 46.9707 31.0365 46.9316 31.0039C46.8991 30.9844 46.8665 30.9779 46.834 30.9844C46.8014 30.9844 46.7754 30.9681 46.7559 30.9355C46.7298 30.916 46.707 30.8835 46.6875 30.8379C46.6745 30.7923 46.6582 30.7467 46.6387 30.7012C46.6191 30.6491 46.5931 30.6035 46.5605 30.5645C46.5345 30.5254 46.4922 30.5026 46.4336 30.4961C46.4336 30.3984 46.4076 30.3105 46.3555 30.2324C46.3034 30.1478 46.2611 30.0632 46.2285 29.9785C46.196 29.8874 46.1732 29.7995 46.1602 29.7148C46.1536 29.6237 46.1309 29.5391 46.0918 29.4609C46.0592 29.3828 46.0202 29.3145 45.9746 29.2559C45.929 29.1973 45.8835 29.1419 45.8379 29.0898C45.7988 29.0378 45.763 28.9792 45.7305 28.9141C45.7044 28.8424 45.6914 28.7578 45.6914 28.6602C45.6914 28.5169 45.7044 28.377 45.7305 28.2402C45.7565 28.1035 45.7695 27.9635 45.7695 27.8203C45.7695 27.6706 45.7467 27.5208 45.7012 27.3711C45.6556 27.2214 45.6328 27.0651 45.6328 26.9023C45.6328 26.5964 45.6686 26.2969 45.7402 26.0039C45.8118 25.7044 45.8477 25.4017 45.8477 25.0957C45.8477 24.9655 45.8314 24.8418 45.7988 24.7246C45.7663 24.6009 45.75 24.474 45.75 24.3438C45.75 24.2526 45.7663 24.1615 45.7988 24.0703C45.8314 23.9792 45.89 23.901 45.9746 23.8359C45.9876 23.8164 45.9909 23.7936 45.9844 23.7676C45.9779 23.7415 45.9746 23.7188 45.9746 23.6992C45.9746 23.6797 45.9844 23.6406 46.0039 23.582C46.0234 23.5234 46.043 23.4616 46.0625 23.3965C46.0885 23.3249 46.1113 23.2533 46.1309 23.1816C46.1504 23.11 46.1634 23.0547 46.1699 23.0156C46.1764 22.9505 46.1895 22.8984 46.209 22.8594C46.235 22.8203 46.2643 22.7878 46.2969 22.7617C46.3359 22.7292 46.3717 22.6999 46.4043 22.6738C46.4368 22.6413 46.4661 22.6022 46.4922 22.5566C46.5443 22.4655 46.5638 22.3711 46.5508 22.2734C46.5378 22.1693 46.5573 22.0716 46.6094 21.9805L46.7559 21.9219C46.8014 21.8177 46.8372 21.7461 46.8633 21.707C46.8893 21.668 46.9121 21.6419 46.9316 21.6289C46.9512 21.6094 46.9707 21.5964 46.9902 21.5898C47.0098 21.5833 47.0358 21.5605 47.0684 21.5215C47.0879 21.502 47.0977 21.4759 47.0977 21.4434C47.0977 21.4043 47.1074 21.3685 47.127 21.3359C47.1595 21.2839 47.2116 21.2415 47.2832 21.209C47.3548 21.1764 47.4102 21.1341 47.4492 21.082C47.4883 21.0299 47.5176 20.9746 47.5371 20.916C47.5632 20.8509 47.6022 20.7988 47.6543 20.7598C47.7129 20.7012 47.7943 20.6556 47.8984 20.623C48.0026 20.5905 48.0938 20.5482 48.1719 20.4961C48.2435 20.444 48.3021 20.3887 48.3477 20.3301C48.3997 20.265 48.4681 20.2161 48.5527 20.1836C48.5983 20.1641 48.6634 20.1413 48.748 20.1152C48.8327 20.0892 48.9206 20.0664 49.0117 20.0469C49.1094 20.0273 49.2005 20.0111 49.2852 19.998C49.3698 19.985 49.4382 19.9785 49.4902 19.9785C49.64 19.9785 49.7832 19.998 49.9199 20.0371C50.0632 20.0762 50.2064 20.0957 50.3496 20.0957C50.4733 20.0957 50.5905 20.0859 50.7012 20.0664C50.8118 20.0469 50.9225 20.0371 51.0332 20.0371C51.3132 20.0371 51.554 20.0664 51.7559 20.125C51.9642 20.1771 52.1432 20.2487 52.293 20.3398C52.4492 20.4245 52.5859 20.5189 52.7031 20.623C52.8268 20.7272 52.9408 20.8281 53.0449 20.9258C53.1491 21.0169 53.2533 21.1016 53.3574 21.1797C53.4616 21.2578 53.5788 21.3099 53.709 21.3359C53.748 21.4596 53.8197 21.554 53.9238 21.6191C54.0345 21.6842 54.1354 21.7591 54.2266 21.8438C54.2396 21.9479 54.2656 22.0456 54.3047 22.1367C54.3438 22.2279 54.3861 22.319 54.4316 22.4102C54.4772 22.4948 54.5228 22.5794 54.5684 22.6641C54.6139 22.7487 54.6497 22.8398 54.6758 22.9375C54.7083 23.0417 54.7214 23.1426 54.7148 23.2402C54.7083 23.3379 54.7214 23.4323 54.7539 23.5234C54.793 23.6797 54.8451 23.8327 54.9102 23.9824C54.9753 24.1257 55.0273 24.2721 55.0664 24.4219C55.0924 24.5195 55.1055 24.6172 55.1055 24.7148C55.1055 24.8125 55.1152 24.9069 55.1348 24.998C55.1738 25.1999 55.2096 25.3822 55.2422 25.5449C55.2747 25.7077 55.291 25.8932 55.291 26.1016ZM53.25 25.9844C53.25 25.8932 53.2272 25.8151 53.1816 25.75C53.1426 25.6784 53.1068 25.6003 53.0742 25.5156C53.0026 25.3268 52.9635 25.1283 52.957 24.9199C52.957 24.7051 52.9277 24.5 52.8691 24.3047C52.8301 24.168 52.752 24.0117 52.6348 23.8359C52.5176 23.6602 52.3841 23.4876 52.2344 23.3184C52.0846 23.1491 51.9284 22.9961 51.7656 22.8594C51.6094 22.7161 51.4661 22.6152 51.3359 22.5566L51.248 22.4199C51.209 22.4004 51.1602 22.3906 51.1016 22.3906C51.043 22.3906 50.9876 22.3809 50.9355 22.3613C50.7858 22.3092 50.6426 22.2572 50.5059 22.2051C50.3691 22.1465 50.2161 22.1172 50.0469 22.1172C49.8255 22.1172 49.653 22.153 49.5293 22.2246C49.4056 22.2897 49.2982 22.3646 49.207 22.4492C49.1159 22.5273 49.028 22.6022 48.9434 22.6738C48.8587 22.7389 48.748 22.7682 48.6113 22.7617C48.6113 22.8659 48.5885 22.957 48.543 23.0352C48.5039 23.1068 48.4551 23.1751 48.3965 23.2402C48.3379 23.3053 48.2793 23.3704 48.2207 23.4355C48.1621 23.5007 48.1198 23.5755 48.0938 23.6602C48.0807 23.7122 48.0645 23.8099 48.0449 23.9531C48.0319 24.0964 48.0189 24.2559 48.0059 24.4316C47.9928 24.6009 47.9831 24.7637 47.9766 24.9199C47.9701 25.0762 47.9668 25.1901 47.9668 25.2617C47.9668 25.2943 47.9603 25.3268 47.9473 25.3594C47.9342 25.3919 47.9212 25.4245 47.9082 25.457C47.8952 25.6458 47.8854 25.8379 47.8789 26.0332C47.8724 26.222 47.8691 26.4108 47.8691 26.5996C47.8691 26.6712 47.8789 26.7819 47.8984 26.9316C47.918 27.0749 47.944 27.2409 47.9766 27.4297C48.0091 27.612 48.0449 27.8073 48.084 28.0156C48.123 28.2174 48.1621 28.4095 48.2012 28.5918C48.2467 28.7741 48.2891 28.9401 48.3281 29.0898C48.3672 29.2331 48.403 29.3372 48.4355 29.4023C48.4681 29.474 48.5072 29.5293 48.5527 29.5684C48.5983 29.6074 48.6374 29.6595 48.6699 29.7246C48.6895 29.7572 48.6992 29.7897 48.6992 29.8223C48.6992 29.8548 48.7155 29.8874 48.748 29.9199C48.8132 29.9915 48.8913 30.0469 48.9824 30.0859C49.0801 30.125 49.1712 30.1771 49.2559 30.2422C49.36 30.2682 49.4349 30.304 49.4805 30.3496C49.526 30.3887 49.5749 30.431 49.627 30.4766C49.6855 30.5156 49.7604 30.5514 49.8516 30.584C49.9492 30.61 50.1022 30.623 50.3105 30.623C50.4147 30.623 50.4798 30.61 50.5059 30.584C50.5384 30.5579 50.5938 30.5286 50.6719 30.4961C50.7435 30.4635 50.8151 30.4473 50.8867 30.4473C50.9583 30.4473 51.0202 30.4375 51.0723 30.418C51.1829 30.3008 51.3132 30.1901 51.4629 30.0859C51.6191 29.9818 51.7428 29.8613 51.834 29.7246C51.8665 29.679 51.8796 29.6335 51.873 29.5879C51.8665 29.5423 51.8796 29.5 51.9121 29.4609C51.9316 29.4284 51.9609 29.4089 52 29.4023C52.0391 29.3958 52.0684 29.3763 52.0879 29.3438C52.179 29.2135 52.2441 29.0638 52.2832 28.8945C52.3288 28.7188 52.3971 28.5592 52.4883 28.416C52.5273 28.3444 52.5827 28.2858 52.6543 28.2402C52.7259 28.1882 52.778 28.1198 52.8105 28.0352C52.8366 27.9635 52.8561 27.8822 52.8691 27.791C52.8822 27.6999 52.8887 27.6055 52.8887 27.5078C52.8952 27.4102 52.8984 27.3125 52.8984 27.2148C52.9049 27.1172 52.9147 27.026 52.9277 26.9414C52.9408 26.8698 52.9635 26.7917 52.9961 26.707C53.0352 26.6159 53.071 26.528 53.1035 26.4434C53.1426 26.3522 53.1751 26.2676 53.2012 26.1895C53.2337 26.1048 53.25 26.0365 53.25 25.9844Z" fill="white"/>
<path d="M65.8867 29.1777C65.8867 29.2298 65.8704 29.2689 65.8379 29.2949C65.8118 29.321 65.7826 29.3438 65.75 29.3633C65.7305 29.4414 65.7207 29.5195 65.7207 29.5977C65.7272 29.6758 65.7142 29.7507 65.6816 29.8223C65.6491 29.8939 65.6068 29.9655 65.5547 30.0371C65.5091 30.1087 65.4603 30.1803 65.4082 30.252C65.3626 30.3236 65.3203 30.3984 65.2812 30.4766C65.2487 30.5547 65.2292 30.6361 65.2227 30.7207C65.1315 30.7533 65.0534 30.8021 64.9883 30.8672C64.9297 30.9323 64.8711 31.0007 64.8125 31.0723C64.7604 31.1439 64.7051 31.2188 64.6465 31.2969C64.5944 31.375 64.5358 31.4434 64.4707 31.502C64.347 31.5996 64.1875 31.7038 63.9922 31.8145C63.7969 31.9186 63.6276 32.0065 63.4844 32.0781C63.3477 32.1367 63.2044 32.179 63.0547 32.2051C62.9115 32.2311 62.765 32.2539 62.6152 32.2734C62.4655 32.293 62.3158 32.3125 62.166 32.332C62.0228 32.3581 61.8828 32.4004 61.7461 32.459C61.6289 32.3809 61.5052 32.3223 61.375 32.2832C61.2448 32.2441 61.1113 32.2083 60.9746 32.1758C60.8444 32.1497 60.7109 32.1204 60.5742 32.0879C60.444 32.0553 60.3203 32.0065 60.2031 31.9414C60.0729 31.8763 59.9622 31.7982 59.8711 31.707C59.7865 31.6094 59.7083 31.515 59.6367 31.4238C59.5716 31.3262 59.5065 31.2383 59.4414 31.1602C59.3763 31.0755 59.3047 31.0169 59.2266 30.9844C59.2135 31.0234 59.2038 31.0658 59.1973 31.1113C59.1908 31.1569 59.1875 31.1992 59.1875 31.2383C59.1875 31.3294 59.194 31.4173 59.207 31.502C59.2201 31.5801 59.2266 31.6647 59.2266 31.7559C59.194 31.7624 59.1549 31.8112 59.1094 31.9023C59.0703 31.9935 59.015 32.0944 58.9434 32.2051C58.8783 32.3158 58.7936 32.4167 58.6895 32.5078C58.5853 32.599 58.4583 32.6445 58.3086 32.6445C58.1198 32.6445 57.9375 32.599 57.7617 32.5078C57.5859 32.4232 57.4069 32.3418 57.2246 32.2637C57.1139 32.0618 57.0326 31.8503 56.9805 31.6289C56.9284 31.401 56.9023 31.1699 56.9023 30.9355C56.9023 30.7793 56.9121 30.623 56.9316 30.4668C56.9577 30.304 56.9707 30.1478 56.9707 29.998C56.9707 29.9004 56.9609 29.8027 56.9414 29.7051C56.9284 29.6074 56.8958 29.5195 56.8438 29.4414C56.8438 29.3112 56.8763 29.1908 56.9414 29.0801C57.013 28.9694 57.0488 28.849 57.0488 28.7188C57.0488 28.6602 57.0358 28.6048 57.0098 28.5527C56.9837 28.5007 56.9707 28.4421 56.9707 28.377C56.9707 28.2598 57.0033 28.1523 57.0684 28.0547C57.1335 27.9505 57.166 27.8398 57.166 27.7227C57.166 27.6185 57.1562 27.5241 57.1367 27.4395C57.1172 27.3548 57.1074 27.2669 57.1074 27.1758C57.1074 26.9544 57.14 26.7428 57.2051 26.541C57.2702 26.3327 57.3027 26.1243 57.3027 25.916C57.3027 25.8314 57.2897 25.7467 57.2637 25.6621C57.2376 25.5775 57.2083 25.4928 57.1758 25.4082C57.1432 25.3236 57.1139 25.2389 57.0879 25.1543C57.0618 25.0697 57.0488 24.9785 57.0488 24.8809C57.0488 24.6921 57.0781 24.5065 57.1367 24.3242C57.1953 24.1354 57.2246 23.9466 57.2246 23.7578C57.2246 23.6667 57.2148 23.582 57.1953 23.5039C57.1758 23.4193 57.166 23.3314 57.166 23.2402C57.166 23.1621 57.1758 23.0872 57.1953 23.0156C57.2148 22.9375 57.2246 22.8594 57.2246 22.7812C57.2246 22.651 57.2051 22.5241 57.166 22.4004C57.127 22.2767 57.1074 22.1497 57.1074 22.0195C57.1074 21.8177 57.1302 21.6224 57.1758 21.4336C57.2214 21.2383 57.2441 21.0462 57.2441 20.8574C57.2441 20.6556 57.2214 20.457 57.1758 20.2617C57.1302 20.0599 57.1074 19.8581 57.1074 19.6562C57.1074 19.5586 57.127 19.4609 57.166 19.3633C57.2051 19.2591 57.2246 19.1517 57.2246 19.041C57.2246 18.9499 57.2083 18.8652 57.1758 18.7871C57.1432 18.7025 57.1204 18.6211 57.1074 18.543C57.0684 18.3021 57.0423 18.0449 57.0293 17.7715C57.0163 17.498 57.0098 17.2409 57.0098 17C57.0098 16.6549 57.0911 16.4076 57.2539 16.2578C57.4232 16.1016 57.6738 16.0234 58.0059 16.0234C58.1947 16.0234 58.39 16.056 58.5918 16.1211C58.7936 16.1797 58.9661 16.2741 59.1094 16.4043C59.168 16.5801 59.194 16.7624 59.1875 16.9512C59.181 17.1335 59.194 17.3158 59.2266 17.498C59.2461 17.6283 59.2819 17.7585 59.334 17.8887C59.3926 18.0189 59.4219 18.1491 59.4219 18.2793C59.4219 18.403 59.3991 18.5234 59.3535 18.6406C59.3079 18.7513 59.2852 18.8717 59.2852 19.002C59.2852 19.2103 59.3079 19.4154 59.3535 19.6172C59.3991 19.819 59.4219 20.0208 59.4219 20.2227C59.4219 20.3724 59.3991 20.5189 59.3535 20.6621C59.3079 20.8053 59.2852 20.9518 59.2852 21.1016C59.2852 21.1797 59.2884 21.2383 59.2949 21.2773C59.3014 21.3164 59.3079 21.3522 59.3145 21.3848C59.321 21.4108 59.3275 21.4434 59.334 21.4824C59.3405 21.5215 59.3438 21.5801 59.3438 21.6582C59.3438 21.7233 59.3503 21.7721 59.3633 21.8047C59.4609 21.7852 59.5488 21.7428 59.627 21.6777C59.7116 21.6061 59.7897 21.5312 59.8613 21.4531C59.9329 21.3685 60.0046 21.2904 60.0762 21.2188C60.1543 21.1406 60.2389 21.082 60.3301 21.043C60.3952 21.0104 60.4798 20.9811 60.584 20.9551C60.6947 20.9225 60.8086 20.8932 60.9258 20.8672C61.043 20.8346 61.1569 20.8086 61.2676 20.7891C61.3783 20.763 61.4727 20.7402 61.5508 20.7207C61.7005 20.6686 61.847 20.6035 61.9902 20.5254C62.1335 20.4408 62.2865 20.3984 62.4492 20.3984C62.4622 20.3984 62.5273 20.4147 62.6445 20.4473C62.7617 20.4798 62.9017 20.5189 63.0645 20.5645C63.2337 20.61 63.4128 20.6621 63.6016 20.7207C63.7969 20.7793 63.9792 20.8346 64.1484 20.8867C64.3242 20.9388 64.474 20.9844 64.5977 21.0234C64.7279 21.0625 64.8092 21.0885 64.8418 21.1016C64.9069 21.3424 65.0111 21.554 65.1543 21.7363C65.2975 21.9121 65.4733 22.0651 65.6816 22.1953C65.6686 22.2279 65.6621 22.2702 65.6621 22.3223C65.6621 22.3809 65.6849 22.459 65.7305 22.5566C65.7826 22.6543 65.8411 22.7617 65.9062 22.8789C65.9714 22.9896 66.0332 23.1035 66.0918 23.2207C66.1504 23.3379 66.1895 23.4453 66.209 23.543C66.2285 23.6602 66.2285 23.7806 66.209 23.9043C66.196 24.028 66.1895 24.1452 66.1895 24.2559C66.1895 24.3991 66.2122 24.5293 66.2578 24.6465C66.3034 24.7637 66.3262 24.8874 66.3262 25.0176C66.3262 25.1283 66.3164 25.2389 66.2969 25.3496C66.2773 25.4603 66.2676 25.571 66.2676 25.6816C66.2676 25.7467 66.2741 25.8314 66.2871 25.9355C66.3001 26.0397 66.3132 26.1504 66.3262 26.2676C66.3392 26.3848 66.3522 26.4987 66.3652 26.6094C66.3783 26.7201 66.3848 26.8112 66.3848 26.8828V26.9219C66.3848 27.0326 66.3587 27.14 66.3066 27.2441C66.2546 27.3418 66.222 27.446 66.209 27.5566C66.196 27.6478 66.1862 27.7389 66.1797 27.8301C66.1797 27.9212 66.1764 28.0156 66.1699 28.1133C66.1634 28.2044 66.1536 28.2956 66.1406 28.3867C66.1276 28.4779 66.1016 28.569 66.0625 28.6602C66.0299 28.7318 66.0039 28.7806 65.9844 28.8066C65.9648 28.8327 65.9453 28.8587 65.9258 28.8848C65.9128 28.9043 65.903 28.9336 65.8965 28.9727C65.89 29.0117 65.8867 29.0801 65.8867 29.1777ZM64.2852 25.1445C64.2852 25.0924 64.2852 25.0436 64.2852 24.998C64.2852 24.946 64.2786 24.8939 64.2656 24.8418C64.2461 24.7702 64.2168 24.7051 64.1777 24.6465C64.1387 24.5814 64.1029 24.5195 64.0703 24.4609C64.0378 24.3698 64.015 24.2819 64.002 24.1973C63.9954 24.1061 63.9759 24.0215 63.9434 23.9434C63.9108 23.8717 63.875 23.8066 63.8359 23.748C63.7969 23.6829 63.7676 23.6146 63.748 23.543C63.7285 23.4714 63.7122 23.3835 63.6992 23.2793C63.6862 23.1686 63.6634 23.0872 63.6309 23.0352C63.6048 23.0026 63.5495 22.957 63.4648 22.8984C63.3867 22.8398 63.2988 22.7845 63.2012 22.7324C63.1035 22.6738 63.0091 22.625 62.918 22.5859C62.8268 22.5404 62.7617 22.5176 62.7227 22.5176C62.4818 22.5176 62.2669 22.5436 62.0781 22.5957C61.8958 22.6478 61.7331 22.7064 61.5898 22.7715C61.4466 22.8366 61.3229 22.8952 61.2188 22.9473C61.1211 22.9993 61.0365 23.0286 60.9648 23.0352C60.9323 23.0742 60.8574 23.1719 60.7402 23.3281C60.623 23.4844 60.4961 23.6504 60.3594 23.8262C60.2292 24.002 60.1087 24.1647 59.998 24.3145C59.8874 24.4642 59.8223 24.5521 59.8027 24.5781C59.7637 24.6628 59.7409 24.7507 59.7344 24.8418C59.7344 24.9329 59.7181 25.0176 59.6855 25.0957C59.6335 25.2064 59.5814 25.291 59.5293 25.3496C59.4837 25.4082 59.4414 25.4668 59.4023 25.5254C59.3633 25.584 59.3307 25.6523 59.3047 25.7305C59.2786 25.8086 59.2656 25.9193 59.2656 26.0625C59.2656 26.1211 59.2656 26.2155 59.2656 26.3457C59.2721 26.4694 59.2786 26.6159 59.2852 26.7852C59.2982 26.9479 59.3145 27.1237 59.334 27.3125C59.36 27.5013 59.3926 27.6868 59.4316 27.8691C59.4707 28.0514 59.5195 28.224 59.5781 28.3867C59.6432 28.543 59.7181 28.6732 59.8027 28.7773C59.8483 28.8294 59.8939 28.8587 59.9395 28.8652C59.9915 28.8717 60.0339 28.8913 60.0664 28.9238V29.041C60.1836 29.1647 60.278 29.2624 60.3496 29.334C60.4277 29.4056 60.5026 29.4674 60.5742 29.5195C60.6523 29.5651 60.7337 29.6107 60.8184 29.6562C60.9095 29.6953 61.0267 29.7507 61.1699 29.8223C61.235 29.8548 61.2839 29.8841 61.3164 29.9102C61.349 29.9362 61.3815 29.9622 61.4141 29.9883C61.4466 30.0078 61.4857 30.0241 61.5312 30.0371C61.5768 30.0501 61.6484 30.0566 61.7461 30.0566C61.8893 30.0566 62.0521 30.0208 62.2344 29.9492C62.4232 29.8776 62.6055 29.7865 62.7812 29.6758C62.9635 29.5586 63.1296 29.4349 63.2793 29.3047C63.4355 29.168 63.5527 29.041 63.6309 28.9238C63.6895 28.8132 63.7318 28.696 63.7578 28.5723C63.7839 28.4421 63.8262 28.3184 63.8848 28.2012L64.002 28.1426C64.015 28.11 64.0182 28.0742 64.0117 28.0352C64.0052 27.9961 64.002 27.957 64.002 27.918V27.8789C64.0931 27.7682 64.1582 27.5924 64.1973 27.3516C64.2363 27.1042 64.2624 26.8438 64.2754 26.5703C64.2884 26.2904 64.2917 26.0202 64.2852 25.7598C64.2852 25.4928 64.2852 25.2878 64.2852 25.1445Z" fill="white"/>
<path d="M70.8965 17.8203C70.8965 17.8919 70.8802 17.9342 70.8477 17.9473C70.8216 17.9538 70.7988 17.9766 70.7793 18.0156C70.7207 18.1393 70.6914 18.2793 70.6914 18.4355C70.6979 18.5918 70.6816 18.7383 70.6426 18.875C70.6035 19.0117 70.5124 19.1289 70.3691 19.2266C70.2324 19.3177 69.9948 19.3633 69.6562 19.3633C69.5065 19.3633 69.347 19.3438 69.1777 19.3047C69.0085 19.2656 68.875 19.1842 68.7773 19.0605H68.6797C68.5299 19.0605 68.3965 19.0345 68.2793 18.9824C68.1621 18.9238 68.0482 18.8424 67.9375 18.7383C67.9701 18.4583 68.0059 18.1914 68.0449 17.9375C68.0905 17.6771 68.0938 17.4036 68.0547 17.1172C68.1198 17.0195 68.1947 16.9349 68.2793 16.8633C68.3639 16.7917 68.4518 16.7266 68.543 16.668C68.6406 16.6029 68.735 16.541 68.8262 16.4824C68.9238 16.4173 69.015 16.349 69.0996 16.2773C69.1517 16.2904 69.2038 16.3001 69.2559 16.3066C69.3079 16.3132 69.36 16.3164 69.4121 16.3164C69.5163 16.3164 69.6139 16.3099 69.7051 16.2969C69.7962 16.2839 69.8939 16.2773 69.998 16.2773C70.0566 16.349 70.1087 16.4076 70.1543 16.4531C70.1999 16.4922 70.2129 16.5605 70.1934 16.6582C70.265 16.6842 70.3236 16.7233 70.3691 16.7754C70.4147 16.821 70.457 16.873 70.4961 16.9316C70.5417 16.9902 70.584 17.0488 70.623 17.1074C70.6686 17.1595 70.7207 17.2051 70.7793 17.2441V17.2832C70.7793 17.3809 70.7988 17.472 70.8379 17.5566C70.877 17.6413 70.8965 17.7292 70.8965 17.8203ZM70.8574 22.5957C70.8574 22.7064 70.8379 22.8138 70.7988 22.918C70.7598 23.0221 70.7337 23.1296 70.7207 23.2402C70.6751 23.4681 70.6491 23.696 70.6426 23.9238C70.6361 24.1517 70.5938 24.3763 70.5156 24.5977C70.5026 24.6302 70.4928 24.6628 70.4863 24.6953C70.4798 24.7214 70.4766 24.7507 70.4766 24.7832C70.4766 24.8548 70.4831 24.9232 70.4961 24.9883C70.5091 25.0469 70.5156 25.112 70.5156 25.1836C70.5156 25.2422 70.5059 25.2975 70.4863 25.3496C70.4668 25.3952 70.457 25.444 70.457 25.4961C70.457 25.5677 70.4766 25.6458 70.5156 25.7305C70.5547 25.8086 70.5742 25.8997 70.5742 26.0039C70.5742 26.1016 70.5645 26.2025 70.5449 26.3066C70.5254 26.4043 70.5156 26.502 70.5156 26.5996C70.5156 26.7038 70.5254 26.8014 70.5449 26.8926C70.5645 26.9837 70.5742 27.0781 70.5742 27.1758C70.5742 27.5078 70.5612 27.8398 70.5352 28.1719C70.5091 28.4974 70.4961 28.8197 70.4961 29.1387C70.4961 29.3275 70.5124 29.5163 70.5449 29.7051C70.5775 29.8874 70.5938 30.0729 70.5938 30.2617C70.5938 30.5221 70.5384 30.7663 70.4277 30.9941C70.3236 31.222 70.1803 31.4303 69.998 31.6191C69.8939 31.6582 69.7962 31.6777 69.7051 31.6777C69.6139 31.6712 69.5163 31.6777 69.4121 31.6973C69.3405 31.7103 69.2689 31.7396 69.1973 31.7852C69.1322 31.8242 69.0638 31.8438 68.9922 31.8438C68.8945 31.8438 68.7969 31.7852 68.6992 31.668C68.6016 31.5508 68.5137 31.4141 68.4355 31.2578C68.3639 31.1016 68.3053 30.9453 68.2598 30.7891C68.2142 30.6328 68.1914 30.5156 68.1914 30.4375C68.1914 30.1901 68.2109 29.9492 68.25 29.7148C68.2956 29.474 68.3184 29.2298 68.3184 28.9824C68.3184 28.8522 68.3411 28.7253 68.3867 28.6016C68.4323 28.4779 68.4551 28.3444 68.4551 28.2012C68.4551 27.9408 68.4225 27.6738 68.3574 27.4004C68.2923 27.127 68.2598 26.86 68.2598 26.5996C68.2598 26.4499 68.2923 26.3001 68.3574 26.1504C68.4225 25.9941 68.4551 25.8314 68.4551 25.6621C68.4551 25.4928 68.4453 25.3268 68.4258 25.1641C68.4062 24.9948 68.3965 24.8255 68.3965 24.6562C68.377 24.4154 68.3704 24.1777 68.377 23.9434C68.39 23.7025 68.3965 23.4616 68.3965 23.2207C68.3965 23.097 68.3835 22.9733 68.3574 22.8496C68.3314 22.7259 68.3184 22.6022 68.3184 22.4785C68.3184 22.4264 68.3314 22.3809 68.3574 22.3418C68.3835 22.3027 68.3965 22.2637 68.3965 22.2246C68.3965 22.1139 68.3867 22.0033 68.3672 21.8926C68.3477 21.7819 68.3379 21.6777 68.3379 21.5801C68.3379 21.4694 68.3574 21.3555 68.3965 21.2383L68.5137 21.1797V21.0625C68.5592 21.0039 68.6341 20.9518 68.7383 20.9062C68.8424 20.8542 68.9531 20.8118 69.0703 20.7793C69.194 20.7402 69.3145 20.7109 69.4316 20.6914C69.5488 20.6719 69.6432 20.6621 69.7148 20.6621C69.8451 20.6621 69.9688 20.7174 70.0859 20.8281C70.2031 20.9323 70.3073 21.0299 70.3984 21.1211C70.5417 21.2578 70.6458 21.375 70.7109 21.4727C70.776 21.5638 70.8184 21.6582 70.8379 21.7559C70.8639 21.8535 70.8737 21.9674 70.8672 22.0977C70.8607 22.2279 70.8574 22.3939 70.8574 22.5957Z" fill="white"/>
<path d="M80.8281 21.6777C80.8281 21.821 80.7858 21.9479 80.7012 22.0586C80.623 22.1628 80.5579 22.2767 80.5059 22.4004C80.3887 22.4199 80.2845 22.4557 80.1934 22.5078C80.1087 22.5534 80.0208 22.6055 79.9297 22.6641C79.8451 22.7161 79.7507 22.7617 79.6465 22.8008C79.5423 22.8398 79.4219 22.8594 79.2852 22.8594C79.1549 22.8594 79.028 22.8464 78.9043 22.8203C78.7871 22.7943 78.6667 22.7812 78.543 22.7812C78.3802 22.7812 78.224 22.8138 78.0742 22.8789C77.931 22.944 77.7747 22.9766 77.6055 22.9766C77.4427 22.9766 77.2767 22.9603 77.1074 22.9277C76.9447 22.8952 76.7852 22.8789 76.6289 22.8789C76.5768 22.8789 76.528 22.8822 76.4824 22.8887C76.4434 22.8952 76.4043 22.8984 76.3652 22.8984C76.3066 23.0221 76.2806 23.1491 76.2871 23.2793C76.3001 23.4095 76.3066 23.5365 76.3066 23.6602C76.3066 23.8815 76.2839 24.1029 76.2383 24.3242C76.1992 24.5456 76.1797 24.7702 76.1797 24.998C76.1797 25.1803 76.1992 25.3594 76.2383 25.5352C76.2839 25.7044 76.3066 25.8802 76.3066 26.0625C76.3066 26.1602 76.2936 26.2513 76.2676 26.3359C76.2415 26.4141 76.209 26.4922 76.1699 26.5703C76.1374 26.6484 76.1081 26.7266 76.082 26.8047C76.056 26.8828 76.043 26.9674 76.043 27.0586C76.043 27.1172 76.0527 27.179 76.0723 27.2441C76.0918 27.3027 76.1016 27.3613 76.1016 27.4199L76.043 27.4785C76.043 27.5046 76.0495 27.5273 76.0625 27.5469C76.0755 27.5599 76.0918 27.5794 76.1113 27.6055C76.1309 27.625 76.1471 27.651 76.1602 27.6836C76.1732 27.7161 76.1797 27.7617 76.1797 27.8203C76.1797 27.9896 76.1667 28.1589 76.1406 28.3281C76.1146 28.4974 76.1016 28.6667 76.1016 28.8359C76.1016 28.8685 76.1081 28.9401 76.1211 29.0508C76.1341 29.1549 76.1504 29.2786 76.1699 29.4219C76.196 29.5651 76.2188 29.7148 76.2383 29.8711C76.2643 30.0273 76.2904 30.1738 76.3164 30.3105C76.3424 30.4473 76.3652 30.5645 76.3848 30.6621C76.4108 30.7598 76.4303 30.8184 76.4434 30.8379C76.4954 30.9095 76.5573 30.9681 76.6289 31.0137C76.7005 31.0527 76.7656 31.1016 76.8242 31.1602C76.8503 31.1732 76.8893 31.1797 76.9414 31.1797C77.013 31.1797 77.0781 31.1699 77.1367 31.1504C77.2018 31.1309 77.2702 31.1146 77.3418 31.1016C77.4134 31.082 77.485 31.0723 77.5566 31.0723C77.6348 31.0723 77.7096 31.0625 77.7812 31.043C77.8594 31.0104 77.9277 30.9681 77.9863 30.916C78.0449 30.8639 78.1003 30.8151 78.1523 30.7695C78.2109 30.7174 78.2728 30.6751 78.3379 30.6426C78.403 30.6035 78.4779 30.584 78.5625 30.584C78.6732 30.3822 78.7936 30.1901 78.9238 30.0078C79.0605 29.8255 79.1745 29.6302 79.2656 29.4219C79.2917 29.4349 79.3177 29.4414 79.3438 29.4414C79.3958 29.4414 79.4382 29.4284 79.4707 29.4023C79.5098 29.3763 79.5553 29.3633 79.6074 29.3633C79.6139 29.3633 79.6465 29.373 79.7051 29.3926C79.7637 29.4056 79.8255 29.4251 79.8906 29.4512C79.9557 29.4707 80.0176 29.4935 80.0762 29.5195C80.1348 29.5391 80.1706 29.5521 80.1836 29.5586C80.2227 29.5911 80.252 29.6497 80.2715 29.7344C80.2975 29.819 80.3268 29.8874 80.3594 29.9395C80.3919 29.9915 80.4212 30.0306 80.4473 30.0566C80.4733 30.0827 80.4928 30.112 80.5059 30.1445C80.5254 30.1706 80.5384 30.2031 80.5449 30.2422C80.5579 30.2812 80.5645 30.3398 80.5645 30.418C80.5645 30.6198 80.5221 30.8118 80.4375 30.9941C80.3594 31.1699 80.2943 31.3522 80.2422 31.541C80.1576 31.5736 80.0892 31.6224 80.0371 31.6875C79.985 31.7461 79.9329 31.8079 79.8809 31.873C79.8353 31.9382 79.7799 31.9967 79.7148 32.0488C79.6562 32.1009 79.5716 32.1302 79.4609 32.1367C79.4089 32.2865 79.3242 32.4134 79.207 32.5176C79.0898 32.6217 78.9629 32.7096 78.8262 32.7812C78.7871 32.8203 78.7318 32.8398 78.6602 32.8398C78.6211 32.8398 78.5755 32.8301 78.5234 32.8105C78.4779 32.791 78.4453 32.7617 78.4258 32.7227C78.3411 32.7552 78.2793 32.7878 78.2402 32.8203C78.2077 32.8594 78.1784 32.8984 78.1523 32.9375C78.1263 32.9831 78.097 33.0254 78.0645 33.0645C78.0384 33.1035 77.9928 33.1393 77.9277 33.1719C77.8691 33.2044 77.7812 33.2305 77.6641 33.25C77.5534 33.2695 77.4004 33.2793 77.2051 33.2793C77.1139 33.2793 77.0228 33.2826 76.9316 33.2891C76.847 33.3021 76.7656 33.3249 76.6875 33.3574C76.5378 33.2533 76.3522 33.1882 76.1309 33.1621C75.9095 33.1426 75.7077 33.123 75.5254 33.1035C75.5384 33.0384 75.5189 33.0059 75.4668 33.0059C75.4147 33.0059 75.3724 32.9896 75.3398 32.957C75.2682 32.918 75.2096 32.8594 75.1641 32.7812C75.1185 32.7096 75.0436 32.6641 74.9395 32.6445C74.9329 32.5664 74.9069 32.4915 74.8613 32.4199C74.8158 32.3548 74.7637 32.2897 74.7051 32.2246C74.653 32.1595 74.6009 32.0911 74.5488 32.0195C74.4967 31.9544 74.4609 31.8828 74.4414 31.8047C74.3828 31.6159 74.3112 31.4271 74.2266 31.2383C74.1484 31.043 74.0866 30.8444 74.041 30.6426C74.0215 30.5514 74.002 30.4342 73.9824 30.291C73.9694 30.1413 73.9564 29.985 73.9434 29.8223C73.9368 29.6595 73.9303 29.5033 73.9238 29.3535C73.9238 29.2038 73.9238 29.0801 73.9238 28.9824C73.9238 28.8197 73.9434 28.6667 73.9824 28.5234C74.0215 28.3737 74.041 28.2207 74.041 28.0645C74.041 27.8561 74.0247 27.651 73.9922 27.4492C73.9596 27.2474 73.9368 27.0456 73.9238 26.8438C73.9108 26.7331 73.9108 26.6224 73.9238 26.5117C73.9368 26.401 73.9434 26.2904 73.9434 26.1797C73.9434 26.0104 73.9173 25.8639 73.8652 25.7402C73.9043 25.7142 73.9368 25.6751 73.9629 25.623C73.9954 25.571 74.0215 25.5156 74.041 25.457C74.0605 25.3919 74.0736 25.3268 74.0801 25.2617C74.0931 25.1966 74.0996 25.1413 74.0996 25.0957L74.041 25.0371C74.054 24.9395 74.0638 24.8418 74.0703 24.7441C74.0768 24.64 74.0801 24.5391 74.0801 24.4414C74.0801 24.3372 74.0671 24.2396 74.041 24.1484C74.0215 24.0508 73.9824 23.9629 73.9238 23.8848C73.9108 23.7806 73.9206 23.6829 73.9531 23.5918C73.9857 23.5007 74.002 23.4095 74.002 23.3184L73.9824 23.1621C73.8327 23.1426 73.6764 23.1393 73.5137 23.1523C73.3509 23.1589 73.1947 23.1621 73.0449 23.1621C72.9408 23.1621 72.8366 23.1621 72.7324 23.1621C72.6283 23.1556 72.5306 23.1361 72.4395 23.1035C72.3418 22.9603 72.2409 22.8203 72.1367 22.6836C72.0326 22.5404 71.9805 22.3776 71.9805 22.1953C71.9805 21.987 72.0326 21.8047 72.1367 21.6484C72.2409 21.4922 72.3418 21.3294 72.4395 21.1602C72.5176 21.1536 72.5957 21.1341 72.6738 21.1016C72.752 21.069 72.8268 21.0332 72.8984 20.9941C72.9766 20.9551 73.0514 20.9193 73.123 20.8867C73.1947 20.8542 73.2695 20.8379 73.3477 20.8379C73.4844 20.8379 73.6146 20.8737 73.7383 20.9453C73.862 21.0104 73.9987 21.043 74.1484 21.043H74.2461C74.2786 20.9714 74.3079 20.8965 74.334 20.8184C74.3665 20.7402 74.3763 20.6621 74.3633 20.584C74.3307 20.5579 74.3014 20.5319 74.2754 20.5059C74.2559 20.4733 74.2461 20.4375 74.2461 20.3984C74.2461 20.3659 74.2559 20.3398 74.2754 20.3203C74.2949 20.2943 74.3047 20.2552 74.3047 20.2031C74.3047 20.0534 74.2852 19.9036 74.2461 19.7539C74.207 19.5977 74.1875 19.4382 74.1875 19.2754C74.1875 19.1452 74.207 18.9857 74.2461 18.7969C74.2917 18.6081 74.347 18.4193 74.4121 18.2305C74.4837 18.0352 74.5651 17.8529 74.6562 17.6836C74.7474 17.5143 74.8418 17.3874 74.9395 17.3027C75.0241 17.2897 75.1055 17.2832 75.1836 17.2832C75.2617 17.2832 75.3431 17.2832 75.4277 17.2832C75.623 17.2832 75.7891 17.3255 75.9258 17.4102C76.0625 17.4948 76.1732 17.6055 76.2578 17.7422C76.3424 17.8789 76.4043 18.0352 76.4434 18.2109C76.4824 18.3802 76.502 18.5495 76.502 18.7188C76.502 18.8294 76.4727 18.9661 76.4141 19.1289C76.3555 19.2917 76.3262 19.4674 76.3262 19.6562C76.3262 19.806 76.3327 19.9622 76.3457 20.125C76.3587 20.2812 76.3652 20.4342 76.3652 20.584C76.3978 20.584 76.4303 20.5807 76.4629 20.5742C76.4954 20.5677 76.528 20.5645 76.5605 20.5645C76.6908 20.5645 76.8145 20.5872 76.9316 20.6328C77.0488 20.6784 77.1725 20.7012 77.3027 20.7012C77.3939 20.7012 77.4688 20.6816 77.5273 20.6426C77.5794 20.6426 77.6217 20.6556 77.6543 20.6816C77.6868 20.7012 77.7129 20.7272 77.7324 20.7598C77.7585 20.7858 77.7845 20.8151 77.8105 20.8477C77.8431 20.8737 77.8822 20.89 77.9277 20.8965C78.0254 20.8574 78.1165 20.8053 78.2012 20.7402C78.2923 20.6751 78.3932 20.623 78.5039 20.584H80.1836C80.2357 20.623 80.2812 20.6654 80.3203 20.7109C80.3594 20.7565 80.4212 20.7793 80.5059 20.7793C80.5124 20.8574 80.5319 20.9323 80.5645 21.0039C80.6035 21.0755 80.6426 21.1471 80.6816 21.2188C80.7207 21.2904 80.7533 21.3652 80.7793 21.4434C80.8118 21.515 80.8281 21.5931 80.8281 21.6777Z" fill="white"/>
<path d="M90.7891 24.6367C90.7891 24.7995 90.7663 24.9818 90.7207 25.1836C90.6751 25.3854 90.6035 25.5775 90.5059 25.7598C90.4147 25.9355 90.2975 26.0853 90.1543 26.209C90.0111 26.3262 89.8418 26.3848 89.6465 26.3848C89.4772 26.3848 89.3145 26.3424 89.1582 26.2578C89.002 26.1667 88.8652 26.0592 88.748 25.9355C88.6829 25.7988 88.6439 25.6589 88.6309 25.5156C88.6178 25.3659 88.569 25.2259 88.4844 25.0957C88.4714 25.0827 88.4648 25.0501 88.4648 24.998C88.4648 24.9264 88.4779 24.8581 88.5039 24.793C88.5299 24.7279 88.543 24.6497 88.543 24.5586C88.543 24.4609 88.556 24.3665 88.582 24.2754C88.6081 24.1777 88.6211 24.0736 88.6211 23.9629C88.6211 23.9108 88.582 23.8164 88.5039 23.6797C88.4323 23.543 88.3477 23.403 88.25 23.2598C88.1523 23.11 88.0547 22.9766 87.957 22.8594C87.8659 22.7357 87.8008 22.6641 87.7617 22.6445C87.7422 22.6315 87.7194 22.6315 87.6934 22.6445C87.6673 22.6576 87.638 22.6641 87.6055 22.6641L87.5859 22.6445L87.5273 22.5176C87.3646 22.4525 87.2148 22.4069 87.0781 22.3809C86.9479 22.3483 86.8177 22.3255 86.6875 22.3125C86.5573 22.2995 86.4238 22.293 86.2871 22.293C86.1504 22.2865 86.0039 22.2767 85.8477 22.2637C85.7565 22.2507 85.6654 22.2376 85.5742 22.2246C85.4831 22.2051 85.3854 22.1953 85.2812 22.1953C85.2161 22.1953 85.125 22.2181 85.0078 22.2637C84.8906 22.3092 84.7702 22.3678 84.6465 22.4395C84.5293 22.5046 84.4186 22.5729 84.3145 22.6445C84.2103 22.7161 84.1419 22.7812 84.1094 22.8398C84.0703 22.8854 84.028 22.9798 83.9824 23.123C83.9434 23.2663 83.9043 23.4225 83.8652 23.5918C83.8262 23.7546 83.7904 23.9141 83.7578 24.0703C83.7318 24.2266 83.7155 24.3372 83.709 24.4023C83.7415 24.4805 83.7871 24.5521 83.8457 24.6172C83.9043 24.6758 83.9629 24.7344 84.0215 24.793C84.0866 24.8516 84.1419 24.9134 84.1875 24.9785C84.2396 25.0436 84.2721 25.125 84.2852 25.2227C84.4154 25.2552 84.5228 25.3008 84.6074 25.3594C84.6986 25.4115 84.7865 25.4635 84.8711 25.5156C84.9622 25.5612 85.0599 25.6003 85.1641 25.6328C85.2747 25.6589 85.4147 25.6556 85.584 25.623C85.6686 25.6947 85.7565 25.763 85.8477 25.8281C85.9453 25.8932 86.0299 25.9714 86.1016 26.0625C86.1341 26.0299 86.1732 26.0137 86.2188 26.0137C86.2643 26.0072 86.3132 26.0039 86.3652 26.0039H86.6094C86.694 26.056 86.7852 26.0983 86.8828 26.1309C86.987 26.1569 87.0879 26.1829 87.1855 26.209C87.2897 26.2285 87.3906 26.2513 87.4883 26.2773C87.5859 26.3034 87.6771 26.3457 87.7617 26.4043C87.8919 26.4759 87.9961 26.5768 88.0742 26.707C88.1523 26.8307 88.2435 26.9414 88.3477 27.0391C88.3867 27.026 88.4193 27.0163 88.4453 27.0098C88.4779 27.0033 88.5104 27 88.543 27C88.6406 27 88.7253 27.026 88.7969 27.0781C88.8685 27.1302 88.9368 27.1888 89.002 27.2539C89.0671 27.3125 89.1322 27.3743 89.1973 27.4395C89.2689 27.498 89.3503 27.5371 89.4414 27.5566C89.4674 27.6478 89.5 27.7389 89.5391 27.8301C89.5781 27.9212 89.6335 27.9993 89.7051 28.0645C89.6921 28.2012 89.6921 28.3411 89.7051 28.4844C89.7181 28.6211 89.7246 28.7546 89.7246 28.8848C89.7246 28.9824 89.7116 29.0768 89.6855 29.168C89.6595 29.2526 89.6465 29.3372 89.6465 29.4219C89.6465 29.4935 89.6595 29.5651 89.6855 29.6367C89.7116 29.7083 89.7409 29.7832 89.7734 29.8613C89.806 29.9395 89.8353 30.0176 89.8613 30.0957C89.8874 30.1673 89.9036 30.2422 89.9102 30.3203C89.8841 30.4115 89.8548 30.4896 89.8223 30.5547C89.7962 30.6198 89.7702 30.6849 89.7441 30.75C89.7246 30.8151 89.7083 30.8835 89.6953 30.9551C89.6888 31.0267 89.6921 31.1146 89.7051 31.2188C89.5814 31.3685 89.4837 31.5312 89.4121 31.707C89.3405 31.8828 89.2461 32.0456 89.1289 32.1953L89.002 32.2637V32.3809L88.8652 32.459C88.8327 32.5371 88.8099 32.5892 88.7969 32.6152C88.7839 32.6413 88.7676 32.6576 88.748 32.6641C88.735 32.6771 88.7122 32.6901 88.6797 32.7031C88.6471 32.7161 88.6016 32.7422 88.543 32.7812C88.4844 32.8203 88.4355 32.8724 88.3965 32.9375C88.3574 33.0026 88.3021 33.0579 88.2305 33.1035C88.1263 33.1621 88.0091 33.1947 87.8789 33.2012C87.7552 33.2142 87.638 33.2467 87.5273 33.2988C87.4232 33.3379 87.3255 33.3965 87.2344 33.4746C87.1432 33.5527 87.0456 33.6016 86.9414 33.6211C86.8242 33.6406 86.6973 33.6439 86.5605 33.6309C86.4303 33.6243 86.3066 33.6211 86.1895 33.6211C86.0788 33.6211 85.9714 33.6309 85.8672 33.6504C85.763 33.6699 85.6556 33.6797 85.5449 33.6797C85.4082 33.6797 85.2682 33.6667 85.125 33.6406C84.9818 33.6146 84.8385 33.5853 84.6953 33.5527C84.5586 33.5202 84.4186 33.4909 84.2754 33.4648C84.1322 33.4388 83.9889 33.4225 83.8457 33.416C83.8001 33.3509 83.748 33.3021 83.6895 33.2695C83.6309 33.2435 83.569 33.224 83.5039 33.2109C83.4388 33.2044 83.3737 33.1947 83.3086 33.1816C83.2435 33.1686 83.1816 33.1426 83.123 33.1035C83.0449 33.0449 82.9701 32.9798 82.8984 32.9082C82.8333 32.8366 82.765 32.765 82.6934 32.6934C82.6217 32.6217 82.5469 32.5534 82.4688 32.4883C82.3971 32.4232 82.3158 32.3678 82.2246 32.3223C82.2181 32.2637 82.1888 32.1628 82.1367 32.0195C82.0911 31.8828 82.0391 31.7396 81.9805 31.5898C81.9284 31.4401 81.8796 31.2969 81.834 31.1602C81.7884 31.0169 81.7656 30.916 81.7656 30.8574C81.7656 30.7207 81.7754 30.5807 81.7949 30.4375C81.8145 30.2943 81.8242 30.1478 81.8242 29.998C81.8242 29.9004 81.86 29.8027 81.9316 29.7051C82.0033 29.6009 82.0911 29.5098 82.1953 29.4316C82.2995 29.347 82.4102 29.2819 82.5273 29.2363C82.6445 29.1842 82.7454 29.1582 82.8301 29.1582C83.0059 29.1582 83.1719 29.2005 83.3281 29.2852C83.4909 29.3698 83.6439 29.4609 83.7871 29.5586C83.7936 29.6693 83.8066 29.8027 83.8262 29.959C83.8457 30.1152 83.8783 30.2715 83.9238 30.4277C83.9694 30.584 84.028 30.7305 84.0996 30.8672C84.1712 30.9974 84.2591 31.0951 84.3633 31.1602C84.3958 31.1797 84.4251 31.1895 84.4512 31.1895C84.4837 31.1895 84.5163 31.1992 84.5488 31.2188L84.6074 31.3555C84.6465 31.3685 84.6986 31.3685 84.7637 31.3555C84.8288 31.3424 84.8776 31.3359 84.9102 31.3359C84.9557 31.3359 84.9883 31.3424 85.0078 31.3555C85.0339 31.3685 85.0534 31.3848 85.0664 31.4043C85.0859 31.4173 85.1022 31.4336 85.1152 31.4531C85.1283 31.4661 85.151 31.4759 85.1836 31.4824C85.2682 31.502 85.3561 31.5117 85.4473 31.5117C85.5384 31.5052 85.623 31.502 85.7012 31.502C85.7923 31.502 85.8802 31.5085 85.9648 31.5215C86.056 31.5345 86.1439 31.5671 86.2285 31.6191C86.2806 31.5801 86.349 31.5508 86.4336 31.5312C86.5247 31.5052 86.6159 31.4824 86.707 31.4629C86.7982 31.4434 86.8828 31.4206 86.9609 31.3945C87.0391 31.3685 87.0944 31.3359 87.127 31.2969C87.2376 31.1602 87.3483 31.0104 87.459 30.8477C87.5697 30.6849 87.6706 30.5286 87.7617 30.3789C87.7487 30.2357 87.7487 30.0957 87.7617 29.959C87.7747 29.8158 87.7812 29.6693 87.7812 29.5195C87.7812 29.3698 87.7617 29.2493 87.7227 29.1582C87.6836 29.0605 87.638 28.9727 87.5859 28.8945C87.5404 28.8164 87.4915 28.7383 87.4395 28.6602C87.3874 28.582 87.3483 28.4876 87.3223 28.377C87.2637 28.3509 87.1986 28.3281 87.127 28.3086C87.0553 28.2891 86.9805 28.2663 86.9023 28.2402C86.8307 28.2142 86.7624 28.1849 86.6973 28.1523C86.6322 28.1133 86.5801 28.0612 86.541 27.9961C86.3848 27.9961 86.2415 27.9733 86.1113 27.9277C85.9811 27.8757 85.8444 27.8138 85.7012 27.7422C85.623 27.7617 85.5482 27.7747 85.4766 27.7812C85.4049 27.7812 85.3268 27.7812 85.2422 27.7812C85.0664 27.7812 84.8971 27.7585 84.7344 27.7129C84.5781 27.6608 84.4251 27.6087 84.2754 27.5566C84.1257 27.5046 83.9759 27.459 83.8262 27.4199C83.6829 27.3743 83.5365 27.3548 83.3867 27.3613C83.3151 27.2702 83.2142 27.1628 83.084 27.0391C82.9538 26.9154 82.8203 26.7917 82.6836 26.668C82.5534 26.5443 82.4329 26.4303 82.3223 26.3262C82.2116 26.2155 82.14 26.1276 82.1074 26.0625C82.0553 25.9844 82.013 25.8997 81.9805 25.8086C81.9544 25.7109 81.9251 25.6165 81.8926 25.5254C81.8665 25.4342 81.834 25.3464 81.7949 25.2617C81.7624 25.1771 81.7135 25.1022 81.6484 25.0371C81.7005 24.9329 81.7266 24.8125 81.7266 24.6758C81.7266 24.5586 81.7135 24.4447 81.6875 24.334C81.6615 24.2168 81.6484 24.0996 81.6484 23.9824C81.6484 23.8848 81.6615 23.7969 81.6875 23.7188C81.7135 23.6341 81.7396 23.5495 81.7656 23.4648C81.7982 23.3802 81.8242 23.2923 81.8438 23.2012C81.8633 23.11 81.8633 23.0091 81.8438 22.8984C82.2214 22.4297 82.5632 21.9154 82.8691 21.3555C82.9603 21.2839 83.0579 21.222 83.1621 21.1699C83.2728 21.1178 83.3672 21.056 83.4453 20.9844C83.6732 20.7956 83.8978 20.6523 84.1191 20.5547C84.3405 20.4505 84.6042 20.3984 84.9102 20.3984C85.0078 20.3984 85.099 20.3757 85.1836 20.3301C85.2682 20.278 85.3561 20.2357 85.4473 20.2031C85.5124 20.1836 85.5905 20.1673 85.6816 20.1543C85.7793 20.1413 85.8802 20.1315 85.9844 20.125C86.0885 20.1185 86.1862 20.1152 86.2773 20.1152C86.375 20.1152 86.4564 20.1152 86.5215 20.1152C86.7103 20.1152 86.8796 20.1413 87.0293 20.1934C87.179 20.2389 87.3385 20.2617 87.5078 20.2617C87.5859 20.2617 87.6641 20.2943 87.7422 20.3594C87.8203 20.4245 87.8952 20.4766 87.9668 20.5156C88.1751 20.6263 88.3867 20.7305 88.6016 20.8281C88.8229 20.9258 89.0443 21.0169 89.2656 21.1016C89.3242 21.1927 89.3893 21.2741 89.4609 21.3457C89.5391 21.4108 89.6172 21.4759 89.6953 21.541C89.7799 21.5996 89.8613 21.6615 89.9395 21.7266C90.0176 21.7917 90.0924 21.8633 90.1641 21.9414C90.2227 22.1562 90.2878 22.3776 90.3594 22.6055C90.431 22.8268 90.4961 23.0514 90.5547 23.2793C90.6198 23.5007 90.6751 23.7285 90.7207 23.9629C90.7663 24.1908 90.7891 24.4154 90.7891 24.6367Z" fill="white"/>
</svg>
