<svg width="38" height="38" viewBox="0 0 38 38" fill="none" xmlns="http://www.w3.org/2000/svg">
<path d="M25 5H13C8.0365 5 4 8.7674 4 13.4V31.6C4 31.9713 4.15804 32.3274 4.43934 32.59C4.72064 32.8525 5.10218 33 5.5 33H25C29.9635 33 34 29.2326 34 24.6V13.4C34 8.7674 29.9635 5 25 5ZM31 24.6C31 27.6884 28.309 30.2 25 30.2H7V13.4C7 10.3116 9.691 7.8 13 7.8H25C28.309 7.8 31 10.3116 31 13.4V24.6Z" fill="#FF8753"/>
<path d="M23.8967 12L19 16.8967L14.1033 12L12 14.1033L16.8967 19L12 23.8967L14.1033 26L19 21.1033L23.8967 26L26 23.8967L21.1033 19L26 14.1033L23.8967 12Z" fill="#FF8753"/>
</svg>
