<svg width="38" height="38" viewBox="0 0 38 38" fill="none" xmlns="http://www.w3.org/2000/svg">
<path d="M25 5H13C8.0365 5 4 8.96568 4 13.8421V31.5263C4 31.9172 4.15804 32.292 4.43934 32.5684C4.72064 32.8447 5.10218 33 5.5 33H25C29.9635 33 34 29.0343 34 24.1579V13.8421C34 8.96568 29.9635 5 25 5ZM31 24.1579C31 27.4088 28.309 30.0526 25 30.0526H7V13.8421C7 10.5912 9.691 7.94737 13 7.94737H25C28.309 7.94737 31 10.5912 31 13.8421V24.1579Z" fill="#FF8753"/>
<path d="M15 21C16.1046 21 17 20.1046 17 19C17 17.8954 16.1046 17 15 17C13.8954 17 13 17.8954 13 19C13 20.1046 13.8954 21 15 21Z" fill="#FF8753"/>
<path d="M23 21C24.1046 21 25 20.1046 25 19C25 17.8954 24.1046 17 23 17C21.8954 17 21 17.8954 21 19C21 20.1046 21.8954 21 23 21Z" fill="#FF8753"/>
</svg>
