<svg width="136" height="36" viewBox="0 0 68 18" fill="none" xmlns="http://www.w3.org/2000/svg">
<path d="M9.9668 7.81641C9.9668 7.97266 9.93425 8.15169 9.86914 8.35352C9.81055 8.55534 9.74219 8.75065 9.66406 8.93945C9.59245 9.12175 9.52409 9.28776 9.45898 9.4375C9.40039 9.58073 9.37435 9.67513 9.38086 9.7207C9.32878 9.79883 9.26367 9.86719 9.18555 9.92578C9.10742 9.97786 9.03906 10.043 8.98047 10.1211C8.92839 10.1927 8.89258 10.2806 8.87305 10.3848C8.85352 10.4889 8.80469 10.5671 8.72656 10.6191C8.6875 10.6517 8.63542 10.6842 8.57031 10.7168C8.50521 10.7428 8.43685 10.7721 8.36523 10.8047C8.29362 10.8372 8.22526 10.8665 8.16016 10.8926C8.09505 10.9186 8.04948 10.9414 8.02344 10.9609C7.97135 10.9935 7.92578 11.0358 7.88672 11.0879C7.85417 11.1335 7.81185 11.179 7.75977 11.2246C7.72721 11.2376 7.69466 11.2441 7.66211 11.2441C7.62956 11.2376 7.59701 11.2507 7.56445 11.2832L7.50586 11.4004C7.46029 11.4329 7.4082 11.446 7.34961 11.4395C7.29102 11.4329 7.23568 11.4395 7.18359 11.459C6.90365 11.5892 6.62044 11.7161 6.33398 11.8398C6.05404 11.957 5.75781 12.0514 5.44531 12.123C5.49089 12.2337 5.55599 12.3216 5.64062 12.3867C5.72526 12.4518 5.81641 12.5072 5.91406 12.5527C6.01823 12.5918 6.1224 12.6309 6.22656 12.6699C6.33724 12.709 6.44141 12.7578 6.53906 12.8164C6.59115 12.849 6.63346 12.8913 6.66602 12.9434C6.70508 12.9954 6.75065 13.041 6.80273 13.0801C6.96549 13.1973 7.13477 13.3079 7.31055 13.4121C7.49284 13.5163 7.67188 13.6204 7.84766 13.7246C8.02344 13.8288 8.19596 13.9395 8.36523 14.0566C8.54102 14.1673 8.70703 14.2943 8.86328 14.4375C9 14.457 9.12044 14.4961 9.22461 14.5547C9.32878 14.6068 9.42643 14.6719 9.51758 14.75C9.60872 14.8216 9.69336 14.903 9.77148 14.9941C9.85612 15.0853 9.94075 15.1797 10.0254 15.2773V15.3848C10.0254 15.5671 10.0156 15.7168 9.99609 15.834C9.97656 15.9512 9.9375 16.0488 9.87891 16.127C9.82031 16.2051 9.73893 16.2702 9.63477 16.3223C9.53711 16.3809 9.4069 16.4395 9.24414 16.498C9.19206 16.5176 9.13997 16.5339 9.08789 16.5469C9.03581 16.5664 8.98047 16.5762 8.92188 16.5762C8.83073 16.5762 8.72005 16.5762 8.58984 16.5762C8.46615 16.5827 8.36198 16.5762 8.27734 16.5566C8.25781 16.5501 8.21224 16.5306 8.14062 16.498C8.07552 16.4655 8.00065 16.4264 7.91602 16.3809C7.83789 16.3418 7.76302 16.3027 7.69141 16.2637C7.6263 16.2246 7.58398 16.1953 7.56445 16.1758C7.47331 16.0977 7.39193 16.0065 7.32031 15.9023C7.2487 15.7982 7.16406 15.7168 7.06641 15.6582C6.94271 15.5866 6.80924 15.5443 6.66602 15.5312C6.5293 15.5182 6.40234 15.4759 6.28516 15.4043C6.14193 15.3197 6.02148 15.2155 5.92383 15.0918C5.82617 14.9616 5.70573 14.8509 5.5625 14.7598C5.4388 14.6816 5.29883 14.6165 5.14258 14.5645C4.99284 14.5124 4.85286 14.4505 4.72266 14.3789C4.61198 14.3008 4.51432 14.2064 4.42969 14.0957C4.35156 13.9785 4.25716 13.8743 4.14648 13.7832C4.0944 13.7376 4.03255 13.7051 3.96094 13.6855C3.88932 13.666 3.82422 13.6367 3.76562 13.5977C3.71354 13.5586 3.67122 13.5065 3.63867 13.4414C3.60612 13.3763 3.55404 13.3438 3.48242 13.3438H3.44336C3.35221 13.4349 3.30664 13.5521 3.30664 13.6953C3.30664 13.8646 3.32943 14.0339 3.375 14.2031C3.42057 14.3659 3.44336 14.5319 3.44336 14.7012C3.44336 14.7728 3.42708 14.8477 3.39453 14.9258C3.36198 14.9974 3.33919 15.069 3.32617 15.1406C3.30013 15.2188 3.29362 15.3001 3.30664 15.3848C3.31966 15.4629 3.32617 15.541 3.32617 15.6191C3.32617 15.7168 3.29362 15.8145 3.22852 15.9121C3.16341 16.0098 3.08203 16.0977 2.98438 16.1758C2.88672 16.2539 2.78255 16.3158 2.67188 16.3613C2.5612 16.4134 2.45703 16.4395 2.35938 16.4395C2.22266 16.4395 2.08268 16.4134 1.93945 16.3613C1.79622 16.3158 1.64974 16.2767 1.5 16.2441C1.42188 16.1009 1.34701 15.9544 1.27539 15.8047C1.21029 15.6549 1.17773 15.4987 1.17773 15.3359C1.17773 15.2773 1.18424 15.2253 1.19727 15.1797C1.21029 15.1276 1.22656 15.0755 1.24609 15.0234C1.16146 14.8216 1.10612 14.6165 1.08008 14.4082C1.05404 14.1999 1.04102 13.9915 1.04102 13.7832C1.04102 13.4967 1.06706 13.2201 1.11914 12.9531C1.17773 12.6797 1.20703 12.403 1.20703 12.123C1.20703 12.11 1.20378 12.097 1.19727 12.084C1.19727 12.0645 1.19076 12.0482 1.17773 12.0352L1.06055 11.9766C1.04753 11.944 1.04427 11.9147 1.05078 11.8887C1.05729 11.8626 1.06055 11.8333 1.06055 11.8008C1.06055 11.7552 1.05729 11.6999 1.05078 11.6348C1.04427 11.5697 1.03125 11.5046 1.01172 11.4395C0.998698 11.3743 0.979167 11.3158 0.953125 11.2637C0.927083 11.2051 0.897786 11.1628 0.865234 11.1367C0.95638 10.987 0.998698 10.8242 0.992188 10.6484C0.985677 10.4661 0.982422 10.2839 0.982422 10.1016C0.982422 9.95833 1.00521 9.82161 1.05078 9.69141C1.09635 9.5612 1.11914 9.42448 1.11914 9.28125C1.11914 9.07292 1.10938 8.86133 1.08984 8.64648C1.07031 8.42513 1.06055 8.21029 1.06055 8.00195C1.06055 7.80013 1.02799 7.61133 0.962891 7.43555C0.897786 7.25326 0.865234 7.06771 0.865234 6.87891C0.865234 6.80078 0.88151 6.72917 0.914062 6.66406C0.946615 6.59245 0.969401 6.51758 0.982422 6.43945C1.01497 6.31576 1.02148 6.19206 1.00195 6.06836C0.988932 5.94466 0.982422 5.82096 0.982422 5.69727C0.982422 5.63867 0.995443 5.59961 1.02148 5.58008C1.04753 5.55404 1.06055 5.51497 1.06055 5.46289C1.06055 5.39128 1.03776 5.31315 0.992188 5.22852C0.946615 5.14388 0.923828 5.04622 0.923828 4.93555C0.923828 4.72721 0.933594 4.51888 0.953125 4.31055C0.972656 4.0957 0.982422 3.8776 0.982422 3.65625C0.982422 3.55859 0.998698 3.46094 1.03125 3.36328C1.0638 3.26562 1.09635 3.17122 1.12891 3.08008C1.16146 2.98242 1.18424 2.88802 1.19727 2.79688C1.2168 2.69922 1.21029 2.60156 1.17773 2.50391C1.22331 2.45182 1.27539 2.42253 1.33398 2.41602C1.39258 2.40951 1.44792 2.39648 1.5 2.37695C1.60417 2.32487 1.70182 2.26953 1.79297 2.21094C1.88411 2.15234 1.98177 2.10352 2.08594 2.06445C2.19661 2.01237 2.30404 1.97982 2.4082 1.9668C2.51237 1.95378 2.62305 1.9375 2.74023 1.91797C2.79232 1.90495 2.83789 1.88216 2.87695 1.84961C2.91602 1.81706 2.96484 1.80078 3.02344 1.80078C3.07552 1.80078 3.12435 1.81055 3.16992 1.83008C3.22201 1.84961 3.27409 1.85938 3.32617 1.85938C3.35872 1.80729 3.38477 1.78451 3.4043 1.79102C3.43034 1.79753 3.4694 1.80078 3.52148 1.80078C3.56055 1.80078 3.60612 1.79427 3.6582 1.78125C3.71029 1.76823 3.76237 1.75521 3.81445 1.74219C3.86654 1.72917 3.91536 1.7194 3.96094 1.71289C4.00651 1.70638 4.04557 1.70964 4.07812 1.72266C4.14323 1.72266 4.20508 1.71289 4.26367 1.69336C4.32227 1.67383 4.38086 1.66406 4.43945 1.66406C4.51107 1.66406 4.56966 1.68359 4.61523 1.72266C4.66732 1.76172 4.72917 1.78776 4.80078 1.80078C4.88542 1.8138 4.97005 1.8138 5.05469 1.80078C5.13932 1.78776 5.2207 1.78125 5.29883 1.78125C5.39648 1.78125 5.48112 1.79102 5.55273 1.81055C5.63086 1.83008 5.70247 1.85612 5.76758 1.88867C5.83919 1.91471 5.91081 1.94401 5.98242 1.97656C6.05404 2.00911 6.13542 2.03841 6.22656 2.06445C6.35677 2.09701 6.49349 2.11328 6.63672 2.11328C6.77995 2.10677 6.92318 2.12956 7.06641 2.18164C7.14453 2.21419 7.22917 2.25326 7.32031 2.29883C7.41146 2.33789 7.49284 2.38346 7.56445 2.43555C7.61654 2.46159 7.65234 2.49414 7.67188 2.5332C7.69141 2.57227 7.7207 2.60807 7.75977 2.64062C7.82487 2.67318 7.88672 2.6862 7.94531 2.67969C8.00391 2.67318 8.04948 2.67969 8.08203 2.69922C8.1276 2.72526 8.19596 2.78711 8.28711 2.88477C8.37826 2.98242 8.47591 3.08984 8.58008 3.20703C8.69076 3.32422 8.79492 3.43815 8.89258 3.54883C8.99023 3.65951 9.06836 3.74414 9.12695 3.80273L9.09766 3.88086C9.09766 3.95898 9.11393 4.0306 9.14648 4.0957C9.18555 4.16081 9.23112 4.22266 9.2832 4.28125C9.33529 4.33333 9.38737 4.38867 9.43945 4.44727C9.49154 4.50586 9.53385 4.57096 9.56641 4.64258C9.59896 4.68164 9.61198 4.73047 9.60547 4.78906C9.59896 4.84115 9.61198 4.89974 9.64453 4.96484C9.69661 5.07552 9.74219 5.1862 9.78125 5.29688C9.82031 5.40104 9.88216 5.50195 9.9668 5.59961C9.97982 5.6582 9.97656 5.72331 9.95703 5.79492C9.94401 5.86003 9.9375 5.92839 9.9375 6C9.9375 6.13021 9.96354 6.2474 10.0156 6.35156C10.0742 6.45573 10.1035 6.57943 10.1035 6.72266C10.1035 6.91146 10.0807 7.09049 10.0352 7.25977C9.98958 7.42904 9.9668 7.61458 9.9668 7.81641ZM7.125 4.70117L6.97852 4.64258C6.91992 4.55794 6.84831 4.46354 6.76367 4.35938C6.67904 4.25521 6.58464 4.19661 6.48047 4.18359C6.45443 4.13802 6.42188 4.11523 6.38281 4.11523C6.35026 4.11523 6.31771 4.12826 6.28516 4.1543C6.25911 4.17383 6.22331 4.18359 6.17773 4.18359C6.10612 4.18359 6.02148 4.16406 5.92383 4.125C5.82617 4.07943 5.6862 4.05664 5.50391 4.05664C5.45182 4.05664 5.38997 4.03711 5.31836 3.99805C5.24674 3.95898 5.18164 3.93294 5.12305 3.91992C4.97331 3.90039 4.80729 3.88737 4.625 3.88086C4.44271 3.86784 4.27669 3.86133 4.12695 3.86133C4.06185 3.86133 4.00977 3.8776 3.9707 3.91016C3.93164 3.94271 3.88281 3.96549 3.82422 3.97852C3.75911 3.99805 3.68099 4.01107 3.58984 4.01758C3.4987 4.02409 3.41081 4.04036 3.32617 4.06641C3.24805 4.08594 3.17969 4.12174 3.12109 4.17383C3.06901 4.2194 3.04297 4.29427 3.04297 4.39844C3.04297 4.52214 3.06576 4.63607 3.11133 4.74023C3.1569 4.8444 3.17969 4.95833 3.17969 5.08203C3.17969 5.21224 3.1569 5.33919 3.11133 5.46289C3.06576 5.58659 3.04297 5.71354 3.04297 5.84375C3.04297 6.09115 3.05599 6.3418 3.08203 6.5957C3.10807 6.8431 3.12109 7.09701 3.12109 7.35742C3.12109 7.58529 3.14062 7.8099 3.17969 8.03125C3.21875 8.24609 3.23828 8.46745 3.23828 8.69531C3.23828 8.86458 3.22526 9.03711 3.19922 9.21289C3.17318 9.38216 3.16016 9.55143 3.16016 9.7207C3.16016 9.79883 3.16341 9.87695 3.16992 9.95508C3.18294 10.0332 3.20573 10.1081 3.23828 10.1797C3.34245 10.1406 3.45312 10.1178 3.57031 10.1113C3.69401 10.0983 3.81771 10.0951 3.94141 10.1016C4.0651 10.1016 4.1888 10.1081 4.3125 10.1211C4.4362 10.1276 4.55339 10.1276 4.66406 10.1211H4.91797C4.97656 10.069 5.03516 10.0332 5.09375 10.0137C5.15885 9.98763 5.22396 9.9681 5.28906 9.95508C5.36068 9.94206 5.42904 9.92904 5.49414 9.91602C5.56576 9.903 5.63411 9.88346 5.69922 9.85742C5.75781 9.83138 5.81641 9.79232 5.875 9.74023C5.93359 9.68815 5.98893 9.64258 6.04102 9.60352C6.09961 9.55794 6.1582 9.52214 6.2168 9.49609C6.2819 9.46354 6.35026 9.45052 6.42188 9.45703H6.53906C6.5651 9.37891 6.60417 9.31055 6.65625 9.25195C6.70833 9.19336 6.76367 9.13802 6.82227 9.08594C6.88086 9.02734 6.9362 8.96875 6.98828 8.91016C7.04688 8.84505 7.09245 8.77344 7.125 8.69531C7.20312 8.67578 7.27799 8.63997 7.34961 8.58789C7.42122 8.5293 7.47331 8.46094 7.50586 8.38281L7.64258 8.30469V8.17773L7.75977 8.11914C7.79232 8.06055 7.80534 8.00521 7.79883 7.95312C7.79883 7.90104 7.79883 7.84245 7.79883 7.77734C7.79883 7.73177 7.80859 7.67318 7.82812 7.60156C7.85417 7.52344 7.88021 7.4388 7.90625 7.34766C7.9388 7.25 7.96484 7.14583 7.98438 7.03516C8.01042 6.91797 8.02344 6.79427 8.02344 6.66406C8.02344 6.59896 8.01693 6.54688 8.00391 6.50781C7.99089 6.46875 7.97461 6.4362 7.95508 6.41016C7.93555 6.3776 7.91276 6.34505 7.88672 6.3125C7.86068 6.27995 7.83789 6.23438 7.81836 6.17578C7.80534 6.13021 7.79557 6.07812 7.78906 6.01953C7.78255 5.95443 7.77604 5.89258 7.76953 5.83398C7.76953 5.77539 7.76302 5.72005 7.75 5.66797C7.74349 5.61589 7.72721 5.57357 7.70117 5.54102C7.61003 5.39128 7.50911 5.2513 7.39844 5.12109C7.28776 4.99089 7.19661 4.85091 7.125 4.70117Z" fill="white"/>
<path d="M21.2559 10.1016C21.2559 10.3424 21.2363 10.5638 21.1973 10.7656C21.1647 10.9609 21.1322 11.1725 21.0996 11.4004C21.0801 11.5436 21.0703 11.6836 21.0703 11.8203C21.0768 11.957 21.0638 12.097 21.0312 12.2402C20.9987 12.3509 20.9531 12.4583 20.8945 12.5625C20.8359 12.6602 20.7741 12.7578 20.709 12.8555C20.6439 12.9531 20.5788 13.054 20.5137 13.1582C20.4551 13.2559 20.4095 13.3568 20.377 13.4609C20.3509 13.5456 20.3314 13.6335 20.3184 13.7246C20.3118 13.8158 20.2988 13.9069 20.2793 13.998C20.2598 14.0892 20.2337 14.1771 20.2012 14.2617C20.1686 14.3464 20.1198 14.4245 20.0547 14.4961C20.0156 14.5482 19.9635 14.5905 19.8984 14.623C19.8398 14.6491 19.7845 14.6882 19.7324 14.7402C19.6803 14.7988 19.6478 14.8672 19.6348 14.9453C19.6217 15.0169 19.5957 15.082 19.5566 15.1406H19.4199C19.3874 15.1732 19.3678 15.2122 19.3613 15.2578C19.3548 15.3034 19.332 15.3522 19.293 15.4043C19.2148 15.4824 19.0977 15.5703 18.9414 15.668C18.7852 15.7656 18.6094 15.8633 18.4141 15.9609C18.2188 16.0586 18.0104 16.153 17.7891 16.2441C17.5677 16.3353 17.3529 16.4167 17.1445 16.4883C16.9427 16.5599 16.7507 16.6152 16.5684 16.6543C16.3926 16.6999 16.2493 16.7227 16.1387 16.7227C16.054 16.7227 15.9922 16.7129 15.9531 16.6934C15.9206 16.6803 15.8945 16.6608 15.875 16.6348C15.8555 16.6152 15.8359 16.5957 15.8164 16.5762C15.7969 16.5632 15.7578 16.5566 15.6992 16.5566C15.6146 16.5566 15.5332 16.5664 15.4551 16.5859C15.377 16.6055 15.2988 16.6152 15.2207 16.6152C15.1165 16.6152 15.0189 16.5827 14.9277 16.5176C14.8431 16.459 14.752 16.3939 14.6543 16.3223C14.5566 16.2507 14.446 16.1823 14.3223 16.1172C14.1986 16.0586 14.0488 16.0326 13.873 16.0391C13.847 16.0065 13.8112 15.9609 13.7656 15.9023C13.7266 15.8372 13.6842 15.7721 13.6387 15.707C13.5996 15.6419 13.5573 15.5833 13.5117 15.5312C13.4727 15.4727 13.4401 15.4303 13.4141 15.4043C13.362 15.3522 13.3001 15.3197 13.2285 15.3066C13.1634 15.2871 13.0983 15.2513 13.0332 15.1992C13.0007 15.1797 12.9779 15.1504 12.9648 15.1113C12.9583 15.0723 12.9355 15.0365 12.8965 15.0039C12.8639 14.9844 12.8314 14.9779 12.7988 14.9844C12.7663 14.9844 12.7402 14.9681 12.7207 14.9355C12.6947 14.916 12.6719 14.8835 12.6523 14.8379C12.6393 14.7923 12.623 14.7467 12.6035 14.7012C12.584 14.6491 12.5579 14.6035 12.5254 14.5645C12.4993 14.5254 12.457 14.5026 12.3984 14.4961C12.3984 14.3984 12.3724 14.3105 12.3203 14.2324C12.2682 14.1478 12.2259 14.0632 12.1934 13.9785C12.1608 13.8874 12.138 13.7995 12.125 13.7148C12.1185 13.6237 12.0957 13.5391 12.0566 13.4609C12.0241 13.3828 11.985 13.3145 11.9395 13.2559C11.8939 13.1973 11.8483 13.1419 11.8027 13.0898C11.7637 13.0378 11.7279 12.9792 11.6953 12.9141C11.6693 12.8424 11.6562 12.7578 11.6562 12.6602C11.6562 12.5169 11.6693 12.377 11.6953 12.2402C11.7214 12.1035 11.7344 11.9635 11.7344 11.8203C11.7344 11.6706 11.7116 11.5208 11.666 11.3711C11.6204 11.2214 11.5977 11.0651 11.5977 10.9023C11.5977 10.5964 11.6335 10.2969 11.7051 10.0039C11.7767 9.70443 11.8125 9.40169 11.8125 9.0957C11.8125 8.9655 11.7962 8.8418 11.7637 8.72461C11.7311 8.60091 11.7148 8.47396 11.7148 8.34375C11.7148 8.2526 11.7311 8.16146 11.7637 8.07031C11.7962 7.97917 11.8548 7.90104 11.9395 7.83594C11.9525 7.81641 11.9557 7.79362 11.9492 7.76758C11.9427 7.74154 11.9395 7.71875 11.9395 7.69922C11.9395 7.67969 11.9492 7.64062 11.9688 7.58203C11.9883 7.52344 12.0078 7.46159 12.0273 7.39648C12.0534 7.32487 12.0762 7.25326 12.0957 7.18164C12.1152 7.11003 12.1283 7.05469 12.1348 7.01562C12.1413 6.95052 12.1543 6.89844 12.1738 6.85938C12.1999 6.82031 12.2292 6.78776 12.2617 6.76172C12.3008 6.72917 12.3366 6.69987 12.3691 6.67383C12.4017 6.64128 12.431 6.60221 12.457 6.55664C12.5091 6.46549 12.5286 6.37109 12.5156 6.27344C12.5026 6.16927 12.5221 6.07161 12.5742 5.98047L12.7207 5.92188C12.7663 5.81771 12.8021 5.74609 12.8281 5.70703C12.8542 5.66797 12.877 5.64193 12.8965 5.62891C12.916 5.60938 12.9355 5.59635 12.9551 5.58984C12.9746 5.58333 13.0007 5.56055 13.0332 5.52148C13.0527 5.50195 13.0625 5.47591 13.0625 5.44336C13.0625 5.4043 13.0723 5.36849 13.0918 5.33594C13.1243 5.28385 13.1764 5.24154 13.248 5.20898C13.3197 5.17643 13.375 5.13411 13.4141 5.08203C13.4531 5.02995 13.4824 4.97461 13.502 4.91602C13.528 4.85091 13.5671 4.79883 13.6191 4.75977C13.6777 4.70117 13.7591 4.6556 13.8633 4.62305C13.9674 4.59049 14.0586 4.54818 14.1367 4.49609C14.2083 4.44401 14.2669 4.38867 14.3125 4.33008C14.3646 4.26497 14.4329 4.21615 14.5176 4.18359C14.5632 4.16406 14.6283 4.14128 14.7129 4.11523C14.7975 4.08919 14.8854 4.06641 14.9766 4.04688C15.0742 4.02734 15.1654 4.01107 15.25 3.99805C15.3346 3.98503 15.403 3.97852 15.4551 3.97852C15.6048 3.97852 15.748 3.99805 15.8848 4.03711C16.028 4.07617 16.1712 4.0957 16.3145 4.0957C16.4382 4.0957 16.5553 4.08594 16.666 4.06641C16.7767 4.04688 16.8874 4.03711 16.998 4.03711C17.278 4.03711 17.5189 4.06641 17.7207 4.125C17.929 4.17708 18.1081 4.2487 18.2578 4.33984C18.4141 4.42448 18.5508 4.51888 18.668 4.62305C18.7917 4.72721 18.9056 4.82812 19.0098 4.92578C19.1139 5.01693 19.2181 5.10156 19.3223 5.17969C19.4264 5.25781 19.5436 5.3099 19.6738 5.33594C19.7129 5.45964 19.7845 5.55404 19.8887 5.61914C19.9993 5.68424 20.1003 5.75911 20.1914 5.84375C20.2044 5.94792 20.2305 6.04557 20.2695 6.13672C20.3086 6.22786 20.3509 6.31901 20.3965 6.41016C20.4421 6.49479 20.4876 6.57943 20.5332 6.66406C20.5788 6.7487 20.6146 6.83984 20.6406 6.9375C20.6732 7.04167 20.6862 7.14258 20.6797 7.24023C20.6732 7.33789 20.6862 7.43229 20.7188 7.52344C20.7578 7.67969 20.8099 7.83268 20.875 7.98242C20.9401 8.12565 20.9922 8.27214 21.0312 8.42188C21.0573 8.51953 21.0703 8.61719 21.0703 8.71484C21.0703 8.8125 21.0801 8.9069 21.0996 8.99805C21.1387 9.19987 21.1745 9.38216 21.207 9.54492C21.2396 9.70768 21.2559 9.89323 21.2559 10.1016ZM19.2148 9.98438C19.2148 9.89323 19.1921 9.8151 19.1465 9.75C19.1074 9.67839 19.0716 9.60026 19.0391 9.51562C18.9674 9.32682 18.9284 9.12825 18.9219 8.91992C18.9219 8.70508 18.8926 8.5 18.834 8.30469C18.7949 8.16797 18.7168 8.01172 18.5996 7.83594C18.4824 7.66016 18.349 7.48763 18.1992 7.31836C18.0495 7.14909 17.8932 6.99609 17.7305 6.85938C17.5742 6.71615 17.431 6.61523 17.3008 6.55664L17.2129 6.41992C17.1738 6.40039 17.125 6.39062 17.0664 6.39062C17.0078 6.39062 16.9525 6.38086 16.9004 6.36133C16.7507 6.30924 16.6074 6.25716 16.4707 6.20508C16.334 6.14648 16.181 6.11719 16.0117 6.11719C15.7904 6.11719 15.6178 6.15299 15.4941 6.22461C15.3704 6.28971 15.263 6.36458 15.1719 6.44922C15.0807 6.52734 14.9928 6.60221 14.9082 6.67383C14.8236 6.73893 14.7129 6.76823 14.5762 6.76172C14.5762 6.86589 14.5534 6.95703 14.5078 7.03516C14.4688 7.10677 14.4199 7.17513 14.3613 7.24023C14.3027 7.30534 14.2441 7.37044 14.1855 7.43555C14.127 7.50065 14.0846 7.57552 14.0586 7.66016C14.0456 7.71224 14.0293 7.8099 14.0098 7.95312C13.9967 8.09635 13.9837 8.25586 13.9707 8.43164C13.9577 8.60091 13.9479 8.76367 13.9414 8.91992C13.9349 9.07617 13.9316 9.1901 13.9316 9.26172C13.9316 9.29427 13.9251 9.32682 13.9121 9.35938C13.8991 9.39193 13.8861 9.42448 13.873 9.45703C13.86 9.64583 13.8503 9.83789 13.8438 10.0332C13.8372 10.222 13.834 10.4108 13.834 10.5996C13.834 10.6712 13.8438 10.7819 13.8633 10.9316C13.8828 11.0749 13.9089 11.2409 13.9414 11.4297C13.974 11.612 14.0098 11.8073 14.0488 12.0156C14.0879 12.2174 14.127 12.4095 14.166 12.5918C14.2116 12.7741 14.2539 12.9401 14.293 13.0898C14.332 13.2331 14.3678 13.3372 14.4004 13.4023C14.4329 13.474 14.472 13.5293 14.5176 13.5684C14.5632 13.6074 14.6022 13.6595 14.6348 13.7246C14.6543 13.7572 14.6641 13.7897 14.6641 13.8223C14.6641 13.8548 14.6803 13.8874 14.7129 13.9199C14.778 13.9915 14.8561 14.0469 14.9473 14.0859C15.0449 14.125 15.1361 14.1771 15.2207 14.2422C15.3249 14.2682 15.3997 14.304 15.4453 14.3496C15.4909 14.3887 15.5397 14.431 15.5918 14.4766C15.6504 14.5156 15.7253 14.5514 15.8164 14.584C15.9141 14.61 16.0671 14.623 16.2754 14.623C16.3796 14.623 16.4447 14.61 16.4707 14.584C16.5033 14.5579 16.5586 14.5286 16.6367 14.4961C16.7083 14.4635 16.7799 14.4473 16.8516 14.4473C16.9232 14.4473 16.985 14.4375 17.0371 14.418C17.1478 14.3008 17.278 14.1901 17.4277 14.0859C17.584 13.9818 17.7077 13.8613 17.7988 13.7246C17.8314 13.679 17.8444 13.6335 17.8379 13.5879C17.8314 13.5423 17.8444 13.5 17.877 13.4609C17.8965 13.4284 17.9258 13.4089 17.9648 13.4023C18.0039 13.3958 18.0332 13.3763 18.0527 13.3438C18.1439 13.2135 18.209 13.0638 18.248 12.8945C18.2936 12.7188 18.362 12.5592 18.4531 12.416C18.4922 12.3444 18.5475 12.2858 18.6191 12.2402C18.6908 12.1882 18.7428 12.1198 18.7754 12.0352C18.8014 11.9635 18.821 11.8822 18.834 11.791C18.847 11.6999 18.8535 11.6055 18.8535 11.5078C18.86 11.4102 18.8633 11.3125 18.8633 11.2148C18.8698 11.1172 18.8796 11.026 18.8926 10.9414C18.9056 10.8698 18.9284 10.7917 18.9609 10.707C19 10.6159 19.0358 10.528 19.0684 10.4434C19.1074 10.3522 19.14 10.2676 19.166 10.1895C19.1986 10.1048 19.2148 10.0365 19.2148 9.98438Z" fill="white"/>
<path d="M32.291 10.1016C32.291 10.3424 32.2715 10.5638 32.2324 10.7656C32.1999 10.9609 32.1673 11.1725 32.1348 11.4004C32.1152 11.5436 32.1055 11.6836 32.1055 11.8203C32.112 11.957 32.099 12.097 32.0664 12.2402C32.0339 12.3509 31.9883 12.4583 31.9297 12.5625C31.8711 12.6602 31.8092 12.7578 31.7441 12.8555C31.679 12.9531 31.6139 13.054 31.5488 13.1582C31.4902 13.2559 31.4447 13.3568 31.4121 13.4609C31.3861 13.5456 31.3665 13.6335 31.3535 13.7246C31.347 13.8158 31.334 13.9069 31.3145 13.998C31.2949 14.0892 31.2689 14.1771 31.2363 14.2617C31.2038 14.3464 31.1549 14.4245 31.0898 14.4961C31.0508 14.5482 30.9987 14.5905 30.9336 14.623C30.875 14.6491 30.8197 14.6882 30.7676 14.7402C30.7155 14.7988 30.6829 14.8672 30.6699 14.9453C30.6569 15.0169 30.6309 15.082 30.5918 15.1406H30.4551C30.4225 15.1732 30.403 15.2122 30.3965 15.2578C30.39 15.3034 30.3672 15.3522 30.3281 15.4043C30.25 15.4824 30.1328 15.5703 29.9766 15.668C29.8203 15.7656 29.6445 15.8633 29.4492 15.9609C29.2539 16.0586 29.0456 16.153 28.8242 16.2441C28.6029 16.3353 28.388 16.4167 28.1797 16.4883C27.9779 16.5599 27.7858 16.6152 27.6035 16.6543C27.4277 16.6999 27.2845 16.7227 27.1738 16.7227C27.0892 16.7227 27.0273 16.7129 26.9883 16.6934C26.9557 16.6803 26.9297 16.6608 26.9102 16.6348C26.8906 16.6152 26.8711 16.5957 26.8516 16.5762C26.832 16.5632 26.793 16.5566 26.7344 16.5566C26.6497 16.5566 26.5684 16.5664 26.4902 16.5859C26.4121 16.6055 26.334 16.6152 26.2559 16.6152C26.1517 16.6152 26.054 16.5827 25.9629 16.5176C25.8783 16.459 25.7871 16.3939 25.6895 16.3223C25.5918 16.2507 25.4811 16.1823 25.3574 16.1172C25.2337 16.0586 25.084 16.0326 24.9082 16.0391C24.8822 16.0065 24.8464 15.9609 24.8008 15.9023C24.7617 15.8372 24.7194 15.7721 24.6738 15.707C24.6348 15.6419 24.5924 15.5833 24.5469 15.5312C24.5078 15.4727 24.4753 15.4303 24.4492 15.4043C24.3971 15.3522 24.3353 15.3197 24.2637 15.3066C24.1986 15.2871 24.1335 15.2513 24.0684 15.1992C24.0358 15.1797 24.013 15.1504 24 15.1113C23.9935 15.0723 23.9707 15.0365 23.9316 15.0039C23.8991 14.9844 23.8665 14.9779 23.834 14.9844C23.8014 14.9844 23.7754 14.9681 23.7559 14.9355C23.7298 14.916 23.707 14.8835 23.6875 14.8379C23.6745 14.7923 23.6582 14.7467 23.6387 14.7012C23.6191 14.6491 23.5931 14.6035 23.5605 14.5645C23.5345 14.5254 23.4922 14.5026 23.4336 14.4961C23.4336 14.3984 23.4076 14.3105 23.3555 14.2324C23.3034 14.1478 23.2611 14.0632 23.2285 13.9785C23.196 13.8874 23.1732 13.7995 23.1602 13.7148C23.1536 13.6237 23.1309 13.5391 23.0918 13.4609C23.0592 13.3828 23.0202 13.3145 22.9746 13.2559C22.929 13.1973 22.8835 13.1419 22.8379 13.0898C22.7988 13.0378 22.763 12.9792 22.7305 12.9141C22.7044 12.8424 22.6914 12.7578 22.6914 12.6602C22.6914 12.5169 22.7044 12.377 22.7305 12.2402C22.7565 12.1035 22.7695 11.9635 22.7695 11.8203C22.7695 11.6706 22.7467 11.5208 22.7012 11.3711C22.6556 11.2214 22.6328 11.0651 22.6328 10.9023C22.6328 10.5964 22.6686 10.2969 22.7402 10.0039C22.8118 9.70443 22.8477 9.40169 22.8477 9.0957C22.8477 8.9655 22.8314 8.8418 22.7988 8.72461C22.7663 8.60091 22.75 8.47396 22.75 8.34375C22.75 8.2526 22.7663 8.16146 22.7988 8.07031C22.8314 7.97917 22.89 7.90104 22.9746 7.83594C22.9876 7.81641 22.9909 7.79362 22.9844 7.76758C22.9779 7.74154 22.9746 7.71875 22.9746 7.69922C22.9746 7.67969 22.9844 7.64062 23.0039 7.58203C23.0234 7.52344 23.043 7.46159 23.0625 7.39648C23.0885 7.32487 23.1113 7.25326 23.1309 7.18164C23.1504 7.11003 23.1634 7.05469 23.1699 7.01562C23.1764 6.95052 23.1895 6.89844 23.209 6.85938C23.235 6.82031 23.2643 6.78776 23.2969 6.76172C23.3359 6.72917 23.3717 6.69987 23.4043 6.67383C23.4368 6.64128 23.4661 6.60221 23.4922 6.55664C23.5443 6.46549 23.5638 6.37109 23.5508 6.27344C23.5378 6.16927 23.5573 6.07161 23.6094 5.98047L23.7559 5.92188C23.8014 5.81771 23.8372 5.74609 23.8633 5.70703C23.8893 5.66797 23.9121 5.64193 23.9316 5.62891C23.9512 5.60938 23.9707 5.59635 23.9902 5.58984C24.0098 5.58333 24.0358 5.56055 24.0684 5.52148C24.0879 5.50195 24.0977 5.47591 24.0977 5.44336C24.0977 5.4043 24.1074 5.36849 24.127 5.33594C24.1595 5.28385 24.2116 5.24154 24.2832 5.20898C24.3548 5.17643 24.4102 5.13411 24.4492 5.08203C24.4883 5.02995 24.5176 4.97461 24.5371 4.91602C24.5632 4.85091 24.6022 4.79883 24.6543 4.75977C24.7129 4.70117 24.7943 4.6556 24.8984 4.62305C25.0026 4.59049 25.0938 4.54818 25.1719 4.49609C25.2435 4.44401 25.3021 4.38867 25.3477 4.33008C25.3997 4.26497 25.4681 4.21615 25.5527 4.18359C25.5983 4.16406 25.6634 4.14128 25.748 4.11523C25.8327 4.08919 25.9206 4.06641 26.0117 4.04688C26.1094 4.02734 26.2005 4.01107 26.2852 3.99805C26.3698 3.98503 26.4382 3.97852 26.4902 3.97852C26.64 3.97852 26.7832 3.99805 26.9199 4.03711C27.0632 4.07617 27.2064 4.0957 27.3496 4.0957C27.4733 4.0957 27.5905 4.08594 27.7012 4.06641C27.8118 4.04688 27.9225 4.03711 28.0332 4.03711C28.3132 4.03711 28.554 4.06641 28.7559 4.125C28.9642 4.17708 29.1432 4.2487 29.293 4.33984C29.4492 4.42448 29.5859 4.51888 29.7031 4.62305C29.8268 4.72721 29.9408 4.82812 30.0449 4.92578C30.1491 5.01693 30.2533 5.10156 30.3574 5.17969C30.4616 5.25781 30.5788 5.3099 30.709 5.33594C30.748 5.45964 30.8197 5.55404 30.9238 5.61914C31.0345 5.68424 31.1354 5.75911 31.2266 5.84375C31.2396 5.94792 31.2656 6.04557 31.3047 6.13672C31.3438 6.22786 31.3861 6.31901 31.4316 6.41016C31.4772 6.49479 31.5228 6.57943 31.5684 6.66406C31.6139 6.7487 31.6497 6.83984 31.6758 6.9375C31.7083 7.04167 31.7214 7.14258 31.7148 7.24023C31.7083 7.33789 31.7214 7.43229 31.7539 7.52344C31.793 7.67969 31.8451 7.83268 31.9102 7.98242C31.9753 8.12565 32.0273 8.27214 32.0664 8.42188C32.0924 8.51953 32.1055 8.61719 32.1055 8.71484C32.1055 8.8125 32.1152 8.9069 32.1348 8.99805C32.1738 9.19987 32.2096 9.38216 32.2422 9.54492C32.2747 9.70768 32.291 9.89323 32.291 10.1016ZM30.25 9.98438C30.25 9.89323 30.2272 9.8151 30.1816 9.75C30.1426 9.67839 30.1068 9.60026 30.0742 9.51562C30.0026 9.32682 29.9635 9.12825 29.957 8.91992C29.957 8.70508 29.9277 8.5 29.8691 8.30469C29.8301 8.16797 29.752 8.01172 29.6348 7.83594C29.5176 7.66016 29.3841 7.48763 29.2344 7.31836C29.0846 7.14909 28.9284 6.99609 28.7656 6.85938C28.6094 6.71615 28.4661 6.61523 28.3359 6.55664L28.248 6.41992C28.209 6.40039 28.1602 6.39062 28.1016 6.39062C28.043 6.39062 27.9876 6.38086 27.9355 6.36133C27.7858 6.30924 27.6426 6.25716 27.5059 6.20508C27.3691 6.14648 27.2161 6.11719 27.0469 6.11719C26.8255 6.11719 26.653 6.15299 26.5293 6.22461C26.4056 6.28971 26.2982 6.36458 26.207 6.44922C26.1159 6.52734 26.028 6.60221 25.9434 6.67383C25.8587 6.73893 25.748 6.76823 25.6113 6.76172C25.6113 6.86589 25.5885 6.95703 25.543 7.03516C25.5039 7.10677 25.4551 7.17513 25.3965 7.24023C25.3379 7.30534 25.2793 7.37044 25.2207 7.43555C25.1621 7.50065 25.1198 7.57552 25.0938 7.66016C25.0807 7.71224 25.0645 7.8099 25.0449 7.95312C25.0319 8.09635 25.0189 8.25586 25.0059 8.43164C24.9928 8.60091 24.9831 8.76367 24.9766 8.91992C24.9701 9.07617 24.9668 9.1901 24.9668 9.26172C24.9668 9.29427 24.9603 9.32682 24.9473 9.35938C24.9342 9.39193 24.9212 9.42448 24.9082 9.45703C24.8952 9.64583 24.8854 9.83789 24.8789 10.0332C24.8724 10.222 24.8691 10.4108 24.8691 10.5996C24.8691 10.6712 24.8789 10.7819 24.8984 10.9316C24.918 11.0749 24.944 11.2409 24.9766 11.4297C25.0091 11.612 25.0449 11.8073 25.084 12.0156C25.123 12.2174 25.1621 12.4095 25.2012 12.5918C25.2467 12.7741 25.2891 12.9401 25.3281 13.0898C25.3672 13.2331 25.403 13.3372 25.4355 13.4023C25.4681 13.474 25.5072 13.5293 25.5527 13.5684C25.5983 13.6074 25.6374 13.6595 25.6699 13.7246C25.6895 13.7572 25.6992 13.7897 25.6992 13.8223C25.6992 13.8548 25.7155 13.8874 25.748 13.9199C25.8132 13.9915 25.8913 14.0469 25.9824 14.0859C26.0801 14.125 26.1712 14.1771 26.2559 14.2422C26.36 14.2682 26.4349 14.304 26.4805 14.3496C26.526 14.3887 26.5749 14.431 26.627 14.4766C26.6855 14.5156 26.7604 14.5514 26.8516 14.584C26.9492 14.61 27.1022 14.623 27.3105 14.623C27.4147 14.623 27.4798 14.61 27.5059 14.584C27.5384 14.5579 27.5938 14.5286 27.6719 14.4961C27.7435 14.4635 27.8151 14.4473 27.8867 14.4473C27.9583 14.4473 28.0202 14.4375 28.0723 14.418C28.1829 14.3008 28.3132 14.1901 28.4629 14.0859C28.6191 13.9818 28.7428 13.8613 28.834 13.7246C28.8665 13.679 28.8796 13.6335 28.873 13.5879C28.8665 13.5423 28.8796 13.5 28.9121 13.4609C28.9316 13.4284 28.9609 13.4089 29 13.4023C29.0391 13.3958 29.0684 13.3763 29.0879 13.3438C29.179 13.2135 29.2441 13.0638 29.2832 12.8945C29.3288 12.7188 29.3971 12.5592 29.4883 12.416C29.5273 12.3444 29.5827 12.2858 29.6543 12.2402C29.7259 12.1882 29.778 12.1198 29.8105 12.0352C29.8366 11.9635 29.8561 11.8822 29.8691 11.791C29.8822 11.6999 29.8887 11.6055 29.8887 11.5078C29.8952 11.4102 29.8984 11.3125 29.8984 11.2148C29.9049 11.1172 29.9147 11.026 29.9277 10.9414C29.9408 10.8698 29.9635 10.7917 29.9961 10.707C30.0352 10.6159 30.071 10.528 30.1035 10.4434C30.1426 10.3522 30.1751 10.2676 30.2012 10.1895C30.2337 10.1048 30.25 10.0365 30.25 9.98438Z" fill="white"/>
<path d="M42.8867 13.1777C42.8867 13.2298 42.8704 13.2689 42.8379 13.2949C42.8118 13.321 42.7826 13.3438 42.75 13.3633C42.7305 13.4414 42.7207 13.5195 42.7207 13.5977C42.7272 13.6758 42.7142 13.7507 42.6816 13.8223C42.6491 13.8939 42.6068 13.9655 42.5547 14.0371C42.5091 14.1087 42.4603 14.1803 42.4082 14.252C42.3626 14.3236 42.3203 14.3984 42.2812 14.4766C42.2487 14.5547 42.2292 14.6361 42.2227 14.7207C42.1315 14.7533 42.0534 14.8021 41.9883 14.8672C41.9297 14.9323 41.8711 15.0007 41.8125 15.0723C41.7604 15.1439 41.7051 15.2188 41.6465 15.2969C41.5944 15.375 41.5358 15.4434 41.4707 15.502C41.347 15.5996 41.1875 15.7038 40.9922 15.8145C40.7969 15.9186 40.6276 16.0065 40.4844 16.0781C40.3477 16.1367 40.2044 16.179 40.0547 16.2051C39.9115 16.2311 39.765 16.2539 39.6152 16.2734C39.4655 16.293 39.3158 16.3125 39.166 16.332C39.0228 16.3581 38.8828 16.4004 38.7461 16.459C38.6289 16.3809 38.5052 16.3223 38.375 16.2832C38.2448 16.2441 38.1113 16.2083 37.9746 16.1758C37.8444 16.1497 37.7109 16.1204 37.5742 16.0879C37.444 16.0553 37.3203 16.0065 37.2031 15.9414C37.0729 15.8763 36.9622 15.7982 36.8711 15.707C36.7865 15.6094 36.7083 15.515 36.6367 15.4238C36.5716 15.3262 36.5065 15.2383 36.4414 15.1602C36.3763 15.0755 36.3047 15.0169 36.2266 14.9844C36.2135 15.0234 36.2038 15.0658 36.1973 15.1113C36.1908 15.1569 36.1875 15.1992 36.1875 15.2383C36.1875 15.3294 36.194 15.4173 36.207 15.502C36.2201 15.5801 36.2266 15.6647 36.2266 15.7559C36.194 15.7624 36.1549 15.8112 36.1094 15.9023C36.0703 15.9935 36.015 16.0944 35.9434 16.2051C35.8783 16.3158 35.7936 16.4167 35.6895 16.5078C35.5853 16.599 35.4583 16.6445 35.3086 16.6445C35.1198 16.6445 34.9375 16.599 34.7617 16.5078C34.5859 16.4232 34.4069 16.3418 34.2246 16.2637C34.1139 16.0618 34.0326 15.8503 33.9805 15.6289C33.9284 15.401 33.9023 15.1699 33.9023 14.9355C33.9023 14.7793 33.9121 14.623 33.9316 14.4668C33.9577 14.304 33.9707 14.1478 33.9707 13.998C33.9707 13.9004 33.9609 13.8027 33.9414 13.7051C33.9284 13.6074 33.8958 13.5195 33.8438 13.4414C33.8438 13.3112 33.8763 13.1908 33.9414 13.0801C34.013 12.9694 34.0488 12.849 34.0488 12.7188C34.0488 12.6602 34.0358 12.6048 34.0098 12.5527C33.9837 12.5007 33.9707 12.4421 33.9707 12.377C33.9707 12.2598 34.0033 12.1523 34.0684 12.0547C34.1335 11.9505 34.166 11.8398 34.166 11.7227C34.166 11.6185 34.1562 11.5241 34.1367 11.4395C34.1172 11.3548 34.1074 11.2669 34.1074 11.1758C34.1074 10.9544 34.14 10.7428 34.2051 10.541C34.2702 10.3327 34.3027 10.1243 34.3027 9.91602C34.3027 9.83138 34.2897 9.74675 34.2637 9.66211C34.2376 9.57747 34.2083 9.49284 34.1758 9.4082C34.1432 9.32357 34.1139 9.23893 34.0879 9.1543C34.0618 9.06966 34.0488 8.97852 34.0488 8.88086C34.0488 8.69206 34.0781 8.50651 34.1367 8.32422C34.1953 8.13542 34.2246 7.94661 34.2246 7.75781C34.2246 7.66667 34.2148 7.58203 34.1953 7.50391C34.1758 7.41927 34.166 7.33138 34.166 7.24023C34.166 7.16211 34.1758 7.08724 34.1953 7.01562C34.2148 6.9375 34.2246 6.85938 34.2246 6.78125C34.2246 6.65104 34.2051 6.52409 34.166 6.40039C34.127 6.27669 34.1074 6.14974 34.1074 6.01953C34.1074 5.81771 34.1302 5.6224 34.1758 5.43359C34.2214 5.23828 34.2441 5.04622 34.2441 4.85742C34.2441 4.6556 34.2214 4.45703 34.1758 4.26172C34.1302 4.0599 34.1074 3.85807 34.1074 3.65625C34.1074 3.55859 34.127 3.46094 34.166 3.36328C34.2051 3.25911 34.2246 3.15169 34.2246 3.04102C34.2246 2.94987 34.2083 2.86523 34.1758 2.78711C34.1432 2.70247 34.1204 2.62109 34.1074 2.54297C34.0684 2.30208 34.0423 2.04492 34.0293 1.77148C34.0163 1.49805 34.0098 1.24089 34.0098 1C34.0098 0.654948 34.0911 0.407552 34.2539 0.257812C34.4232 0.101562 34.6738 0.0234375 35.0059 0.0234375C35.1947 0.0234375 35.39 0.0559896 35.5918 0.121094C35.7936 0.179688 35.9661 0.274089 36.1094 0.404297C36.168 0.580078 36.194 0.76237 36.1875 0.951172C36.181 1.13346 36.194 1.31576 36.2266 1.49805C36.2461 1.62826 36.2819 1.75846 36.334 1.88867C36.3926 2.01888 36.4219 2.14909 36.4219 2.2793C36.4219 2.40299 36.3991 2.52344 36.3535 2.64062C36.3079 2.7513 36.2852 2.87174 36.2852 3.00195C36.2852 3.21029 36.3079 3.41536 36.3535 3.61719C36.3991 3.81901 36.4219 4.02083 36.4219 4.22266C36.4219 4.3724 36.3991 4.51888 36.3535 4.66211C36.3079 4.80534 36.2852 4.95182 36.2852 5.10156C36.2852 5.17969 36.2884 5.23828 36.2949 5.27734C36.3014 5.31641 36.3079 5.35221 36.3145 5.38477C36.321 5.41081 36.3275 5.44336 36.334 5.48242C36.3405 5.52148 36.3438 5.58008 36.3438 5.6582C36.3438 5.72331 36.3503 5.77214 36.3633 5.80469C36.4609 5.78516 36.5488 5.74284 36.627 5.67773C36.7116 5.60612 36.7897 5.53125 36.8613 5.45312C36.9329 5.36849 37.0046 5.29036 37.0762 5.21875C37.1543 5.14062 37.2389 5.08203 37.3301 5.04297C37.3952 5.01042 37.4798 4.98112 37.584 4.95508C37.6947 4.92253 37.8086 4.89323 37.9258 4.86719C38.043 4.83464 38.1569 4.80859 38.2676 4.78906C38.3783 4.76302 38.4727 4.74023 38.5508 4.7207C38.7005 4.66862 38.847 4.60352 38.9902 4.52539C39.1335 4.44076 39.2865 4.39844 39.4492 4.39844C39.4622 4.39844 39.5273 4.41471 39.6445 4.44727C39.7617 4.47982 39.9017 4.51888 40.0645 4.56445C40.2337 4.61003 40.4128 4.66211 40.6016 4.7207C40.7969 4.7793 40.9792 4.83464 41.1484 4.88672C41.3242 4.9388 41.474 4.98438 41.5977 5.02344C41.7279 5.0625 41.8092 5.08854 41.8418 5.10156C41.9069 5.34245 42.0111 5.55404 42.1543 5.73633C42.2975 5.91211 42.4733 6.0651 42.6816 6.19531C42.6686 6.22786 42.6621 6.27018 42.6621 6.32227C42.6621 6.38086 42.6849 6.45898 42.7305 6.55664C42.7826 6.6543 42.8411 6.76172 42.9062 6.87891C42.9714 6.98958 43.0332 7.10352 43.0918 7.2207C43.1504 7.33789 43.1895 7.44531 43.209 7.54297C43.2285 7.66016 43.2285 7.7806 43.209 7.9043C43.196 8.028 43.1895 8.14518 43.1895 8.25586C43.1895 8.39909 43.2122 8.5293 43.2578 8.64648C43.3034 8.76367 43.3262 8.88737 43.3262 9.01758C43.3262 9.12825 43.3164 9.23893 43.2969 9.34961C43.2773 9.46029 43.2676 9.57096 43.2676 9.68164C43.2676 9.74675 43.2741 9.83138 43.2871 9.93555C43.3001 10.0397 43.3132 10.1504 43.3262 10.2676C43.3392 10.3848 43.3522 10.4987 43.3652 10.6094C43.3783 10.7201 43.3848 10.8112 43.3848 10.8828V10.9219C43.3848 11.0326 43.3587 11.14 43.3066 11.2441C43.2546 11.3418 43.222 11.446 43.209 11.5566C43.196 11.6478 43.1862 11.7389 43.1797 11.8301C43.1797 11.9212 43.1764 12.0156 43.1699 12.1133C43.1634 12.2044 43.1536 12.2956 43.1406 12.3867C43.1276 12.4779 43.1016 12.569 43.0625 12.6602C43.0299 12.7318 43.0039 12.7806 42.9844 12.8066C42.9648 12.8327 42.9453 12.8587 42.9258 12.8848C42.9128 12.9043 42.903 12.9336 42.8965 12.9727C42.89 13.0117 42.8867 13.0801 42.8867 13.1777ZM41.2852 9.14453C41.2852 9.09245 41.2852 9.04362 41.2852 8.99805C41.2852 8.94596 41.2786 8.89388 41.2656 8.8418C41.2461 8.77018 41.2168 8.70508 41.1777 8.64648C41.1387 8.58138 41.1029 8.51953 41.0703 8.46094C41.0378 8.36979 41.015 8.2819 41.002 8.19727C40.9954 8.10612 40.9759 8.02148 40.9434 7.94336C40.9108 7.87174 40.875 7.80664 40.8359 7.74805C40.7969 7.68294 40.7676 7.61458 40.748 7.54297C40.7285 7.47135 40.7122 7.38346 40.6992 7.2793C40.6862 7.16862 40.6634 7.08724 40.6309 7.03516C40.6048 7.0026 40.5495 6.95703 40.4648 6.89844C40.3867 6.83984 40.2988 6.78451 40.2012 6.73242C40.1035 6.67383 40.0091 6.625 39.918 6.58594C39.8268 6.54036 39.7617 6.51758 39.7227 6.51758C39.4818 6.51758 39.2669 6.54362 39.0781 6.5957C38.8958 6.64779 38.7331 6.70638 38.5898 6.77148C38.4466 6.83659 38.3229 6.89518 38.2188 6.94727C38.1211 6.99935 38.0365 7.02865 37.9648 7.03516C37.9323 7.07422 37.8574 7.17188 37.7402 7.32812C37.623 7.48438 37.4961 7.65039 37.3594 7.82617C37.2292 8.00195 37.1087 8.16471 36.998 8.31445C36.8874 8.46419 36.8223 8.55208 36.8027 8.57812C36.7637 8.66276 36.7409 8.75065 36.7344 8.8418C36.7344 8.93294 36.7181 9.01758 36.6855 9.0957C36.6335 9.20638 36.5814 9.29102 36.5293 9.34961C36.4837 9.4082 36.4414 9.4668 36.4023 9.52539C36.3633 9.58398 36.3307 9.65234 36.3047 9.73047C36.2786 9.80859 36.2656 9.91927 36.2656 10.0625C36.2656 10.1211 36.2656 10.2155 36.2656 10.3457C36.2721 10.4694 36.2786 10.6159 36.2852 10.7852C36.2982 10.9479 36.3145 11.1237 36.334 11.3125C36.36 11.5013 36.3926 11.6868 36.4316 11.8691C36.4707 12.0514 36.5195 12.224 36.5781 12.3867C36.6432 12.543 36.7181 12.6732 36.8027 12.7773C36.8483 12.8294 36.8939 12.8587 36.9395 12.8652C36.9915 12.8717 37.0339 12.8913 37.0664 12.9238V13.041C37.1836 13.1647 37.278 13.2624 37.3496 13.334C37.4277 13.4056 37.5026 13.4674 37.5742 13.5195C37.6523 13.5651 37.7337 13.6107 37.8184 13.6562C37.9095 13.6953 38.0267 13.7507 38.1699 13.8223C38.235 13.8548 38.2839 13.8841 38.3164 13.9102C38.349 13.9362 38.3815 13.9622 38.4141 13.9883C38.4466 14.0078 38.4857 14.0241 38.5312 14.0371C38.5768 14.0501 38.6484 14.0566 38.7461 14.0566C38.8893 14.0566 39.0521 14.0208 39.2344 13.9492C39.4232 13.8776 39.6055 13.7865 39.7812 13.6758C39.9635 13.5586 40.1296 13.4349 40.2793 13.3047C40.4355 13.168 40.5527 13.041 40.6309 12.9238C40.6895 12.8132 40.7318 12.696 40.7578 12.5723C40.7839 12.4421 40.8262 12.3184 40.8848 12.2012L41.002 12.1426C41.015 12.11 41.0182 12.0742 41.0117 12.0352C41.0052 11.9961 41.002 11.957 41.002 11.918V11.8789C41.0931 11.7682 41.1582 11.5924 41.1973 11.3516C41.2363 11.1042 41.2624 10.8438 41.2754 10.5703C41.2884 10.2904 41.2917 10.0202 41.2852 9.75977C41.2852 9.49284 41.2852 9.28776 41.2852 9.14453Z" fill="white"/>
<path d="M47.8965 1.82031C47.8965 1.89193 47.8802 1.93424 47.8477 1.94727C47.8216 1.95378 47.7988 1.97656 47.7793 2.01562C47.7207 2.13932 47.6914 2.2793 47.6914 2.43555C47.6979 2.5918 47.6816 2.73828 47.6426 2.875C47.6035 3.01172 47.5124 3.12891 47.3691 3.22656C47.2324 3.31771 46.9948 3.36328 46.6562 3.36328C46.5065 3.36328 46.347 3.34375 46.1777 3.30469C46.0085 3.26562 45.875 3.18424 45.7773 3.06055H45.6797C45.5299 3.06055 45.3965 3.03451 45.2793 2.98242C45.1621 2.92383 45.0482 2.84245 44.9375 2.73828C44.9701 2.45833 45.0059 2.19141 45.0449 1.9375C45.0905 1.67708 45.0938 1.40365 45.0547 1.11719C45.1198 1.01953 45.1947 0.934896 45.2793 0.863281C45.3639 0.791667 45.4518 0.726562 45.543 0.667969C45.6406 0.602865 45.735 0.541016 45.8262 0.482422C45.9238 0.417318 46.015 0.348958 46.0996 0.277344C46.1517 0.290365 46.2038 0.30013 46.2559 0.306641C46.3079 0.313151 46.36 0.316406 46.4121 0.316406C46.5163 0.316406 46.6139 0.309896 46.7051 0.296875C46.7962 0.283854 46.8939 0.277344 46.998 0.277344C47.0566 0.348958 47.1087 0.407552 47.1543 0.453125C47.1999 0.492188 47.2129 0.560547 47.1934 0.658203C47.265 0.684245 47.3236 0.723307 47.3691 0.775391C47.4147 0.820964 47.457 0.873047 47.4961 0.931641C47.5417 0.990234 47.584 1.04883 47.623 1.10742C47.6686 1.15951 47.7207 1.20508 47.7793 1.24414V1.2832C47.7793 1.38086 47.7988 1.47201 47.8379 1.55664C47.877 1.64128 47.8965 1.72917 47.8965 1.82031ZM47.8574 6.5957C47.8574 6.70638 47.8379 6.8138 47.7988 6.91797C47.7598 7.02214 47.7337 7.12956 47.7207 7.24023C47.6751 7.4681 47.6491 7.69596 47.6426 7.92383C47.6361 8.15169 47.5938 8.3763 47.5156 8.59766C47.5026 8.63021 47.4928 8.66276 47.4863 8.69531C47.4798 8.72135 47.4766 8.75065 47.4766 8.7832C47.4766 8.85482 47.4831 8.92318 47.4961 8.98828C47.5091 9.04688 47.5156 9.11198 47.5156 9.18359C47.5156 9.24219 47.5059 9.29753 47.4863 9.34961C47.4668 9.39518 47.457 9.44401 47.457 9.49609C47.457 9.56771 47.4766 9.64583 47.5156 9.73047C47.5547 9.80859 47.5742 9.89974 47.5742 10.0039C47.5742 10.1016 47.5645 10.2025 47.5449 10.3066C47.5254 10.4043 47.5156 10.502 47.5156 10.5996C47.5156 10.7038 47.5254 10.8014 47.5449 10.8926C47.5645 10.9837 47.5742 11.0781 47.5742 11.1758C47.5742 11.5078 47.5612 11.8398 47.5352 12.1719C47.5091 12.4974 47.4961 12.8197 47.4961 13.1387C47.4961 13.3275 47.5124 13.5163 47.5449 13.7051C47.5775 13.8874 47.5938 14.0729 47.5938 14.2617C47.5938 14.5221 47.5384 14.7663 47.4277 14.9941C47.3236 15.222 47.1803 15.4303 46.998 15.6191C46.8939 15.6582 46.7962 15.6777 46.7051 15.6777C46.6139 15.6712 46.5163 15.6777 46.4121 15.6973C46.3405 15.7103 46.2689 15.7396 46.1973 15.7852C46.1322 15.8242 46.0638 15.8438 45.9922 15.8438C45.8945 15.8438 45.7969 15.7852 45.6992 15.668C45.6016 15.5508 45.5137 15.4141 45.4355 15.2578C45.3639 15.1016 45.3053 14.9453 45.2598 14.7891C45.2142 14.6328 45.1914 14.5156 45.1914 14.4375C45.1914 14.1901 45.2109 13.9492 45.25 13.7148C45.2956 13.474 45.3184 13.2298 45.3184 12.9824C45.3184 12.8522 45.3411 12.7253 45.3867 12.6016C45.4323 12.4779 45.4551 12.3444 45.4551 12.2012C45.4551 11.9408 45.4225 11.6738 45.3574 11.4004C45.2923 11.127 45.2598 10.86 45.2598 10.5996C45.2598 10.4499 45.2923 10.3001 45.3574 10.1504C45.4225 9.99414 45.4551 9.83138 45.4551 9.66211C45.4551 9.49284 45.4453 9.32682 45.4258 9.16406C45.4062 8.99479 45.3965 8.82552 45.3965 8.65625C45.377 8.41536 45.3704 8.17773 45.377 7.94336C45.39 7.70247 45.3965 7.46159 45.3965 7.2207C45.3965 7.09701 45.3835 6.97331 45.3574 6.84961C45.3314 6.72591 45.3184 6.60221 45.3184 6.47852C45.3184 6.42643 45.3314 6.38086 45.3574 6.3418C45.3835 6.30273 45.3965 6.26367 45.3965 6.22461C45.3965 6.11393 45.3867 6.00326 45.3672 5.89258C45.3477 5.7819 45.3379 5.67773 45.3379 5.58008C45.3379 5.4694 45.3574 5.35547 45.3965 5.23828L45.5137 5.17969V5.0625C45.5592 5.00391 45.6341 4.95182 45.7383 4.90625C45.8424 4.85417 45.9531 4.81185 46.0703 4.7793C46.194 4.74023 46.3145 4.71094 46.4316 4.69141C46.5488 4.67188 46.6432 4.66211 46.7148 4.66211C46.8451 4.66211 46.9688 4.71745 47.0859 4.82812C47.2031 4.93229 47.3073 5.02995 47.3984 5.12109C47.5417 5.25781 47.6458 5.375 47.7109 5.47266C47.776 5.5638 47.8184 5.6582 47.8379 5.75586C47.8639 5.85352 47.8737 5.96745 47.8672 6.09766C47.8607 6.22786 47.8574 6.39388 47.8574 6.5957Z" fill="white"/>
<path d="M57.8281 5.67773C57.8281 5.82096 57.7858 5.94792 57.7012 6.05859C57.623 6.16276 57.5579 6.27669 57.5059 6.40039C57.3887 6.41992 57.2845 6.45573 57.1934 6.50781C57.1087 6.55339 57.0208 6.60547 56.9297 6.66406C56.8451 6.71615 56.7507 6.76172 56.6465 6.80078C56.5423 6.83984 56.4219 6.85938 56.2852 6.85938C56.1549 6.85938 56.028 6.84635 55.9043 6.82031C55.7871 6.79427 55.6667 6.78125 55.543 6.78125C55.3802 6.78125 55.224 6.8138 55.0742 6.87891C54.931 6.94401 54.7747 6.97656 54.6055 6.97656C54.4427 6.97656 54.2767 6.96029 54.1074 6.92773C53.9447 6.89518 53.7852 6.87891 53.6289 6.87891C53.5768 6.87891 53.528 6.88216 53.4824 6.88867C53.4434 6.89518 53.4043 6.89844 53.3652 6.89844C53.3066 7.02214 53.2806 7.14909 53.2871 7.2793C53.3001 7.40951 53.3066 7.53646 53.3066 7.66016C53.3066 7.88151 53.2839 8.10286 53.2383 8.32422C53.1992 8.54557 53.1797 8.77018 53.1797 8.99805C53.1797 9.18034 53.1992 9.35938 53.2383 9.53516C53.2839 9.70443 53.3066 9.88021 53.3066 10.0625C53.3066 10.1602 53.2936 10.2513 53.2676 10.3359C53.2415 10.4141 53.209 10.4922 53.1699 10.5703C53.1374 10.6484 53.1081 10.7266 53.082 10.8047C53.056 10.8828 53.043 10.9674 53.043 11.0586C53.043 11.1172 53.0527 11.179 53.0723 11.2441C53.0918 11.3027 53.1016 11.3613 53.1016 11.4199L53.043 11.4785C53.043 11.5046 53.0495 11.5273 53.0625 11.5469C53.0755 11.5599 53.0918 11.5794 53.1113 11.6055C53.1309 11.625 53.1471 11.651 53.1602 11.6836C53.1732 11.7161 53.1797 11.7617 53.1797 11.8203C53.1797 11.9896 53.1667 12.1589 53.1406 12.3281C53.1146 12.4974 53.1016 12.6667 53.1016 12.8359C53.1016 12.8685 53.1081 12.9401 53.1211 13.0508C53.1341 13.1549 53.1504 13.2786 53.1699 13.4219C53.196 13.5651 53.2188 13.7148 53.2383 13.8711C53.2643 14.0273 53.2904 14.1738 53.3164 14.3105C53.3424 14.4473 53.3652 14.5645 53.3848 14.6621C53.4108 14.7598 53.4303 14.8184 53.4434 14.8379C53.4954 14.9095 53.5573 14.9681 53.6289 15.0137C53.7005 15.0527 53.7656 15.1016 53.8242 15.1602C53.8503 15.1732 53.8893 15.1797 53.9414 15.1797C54.013 15.1797 54.0781 15.1699 54.1367 15.1504C54.2018 15.1309 54.2702 15.1146 54.3418 15.1016C54.4134 15.082 54.485 15.0723 54.5566 15.0723C54.6348 15.0723 54.7096 15.0625 54.7812 15.043C54.8594 15.0104 54.9277 14.9681 54.9863 14.916C55.0449 14.8639 55.1003 14.8151 55.1523 14.7695C55.2109 14.7174 55.2728 14.6751 55.3379 14.6426C55.403 14.6035 55.4779 14.584 55.5625 14.584C55.6732 14.3822 55.7936 14.1901 55.9238 14.0078C56.0605 13.8255 56.1745 13.6302 56.2656 13.4219C56.2917 13.4349 56.3177 13.4414 56.3438 13.4414C56.3958 13.4414 56.4382 13.4284 56.4707 13.4023C56.5098 13.3763 56.5553 13.3633 56.6074 13.3633C56.6139 13.3633 56.6465 13.373 56.7051 13.3926C56.7637 13.4056 56.8255 13.4251 56.8906 13.4512C56.9557 13.4707 57.0176 13.4935 57.0762 13.5195C57.1348 13.5391 57.1706 13.5521 57.1836 13.5586C57.2227 13.5911 57.252 13.6497 57.2715 13.7344C57.2975 13.819 57.3268 13.8874 57.3594 13.9395C57.3919 13.9915 57.4212 14.0306 57.4473 14.0566C57.4733 14.0827 57.4928 14.112 57.5059 14.1445C57.5254 14.1706 57.5384 14.2031 57.5449 14.2422C57.5579 14.2812 57.5645 14.3398 57.5645 14.418C57.5645 14.6198 57.5221 14.8118 57.4375 14.9941C57.3594 15.1699 57.2943 15.3522 57.2422 15.541C57.1576 15.5736 57.0892 15.6224 57.0371 15.6875C56.985 15.7461 56.9329 15.8079 56.8809 15.873C56.8353 15.9382 56.7799 15.9967 56.7148 16.0488C56.6562 16.1009 56.5716 16.1302 56.4609 16.1367C56.4089 16.2865 56.3242 16.4134 56.207 16.5176C56.0898 16.6217 55.9629 16.7096 55.8262 16.7812C55.7871 16.8203 55.7318 16.8398 55.6602 16.8398C55.6211 16.8398 55.5755 16.8301 55.5234 16.8105C55.4779 16.791 55.4453 16.7617 55.4258 16.7227C55.3411 16.7552 55.2793 16.7878 55.2402 16.8203C55.2077 16.8594 55.1784 16.8984 55.1523 16.9375C55.1263 16.9831 55.097 17.0254 55.0645 17.0645C55.0384 17.1035 54.9928 17.1393 54.9277 17.1719C54.8691 17.2044 54.7812 17.2305 54.6641 17.25C54.5534 17.2695 54.4004 17.2793 54.2051 17.2793C54.1139 17.2793 54.0228 17.2826 53.9316 17.2891C53.847 17.3021 53.7656 17.3249 53.6875 17.3574C53.5378 17.2533 53.3522 17.1882 53.1309 17.1621C52.9095 17.1426 52.7077 17.123 52.5254 17.1035C52.5384 17.0384 52.5189 17.0059 52.4668 17.0059C52.4147 17.0059 52.3724 16.9896 52.3398 16.957C52.2682 16.918 52.2096 16.8594 52.1641 16.7812C52.1185 16.7096 52.0436 16.6641 51.9395 16.6445C51.9329 16.5664 51.9069 16.4915 51.8613 16.4199C51.8158 16.3548 51.7637 16.2897 51.7051 16.2246C51.653 16.1595 51.6009 16.0911 51.5488 16.0195C51.4967 15.9544 51.4609 15.8828 51.4414 15.8047C51.3828 15.6159 51.3112 15.4271 51.2266 15.2383C51.1484 15.043 51.0866 14.8444 51.041 14.6426C51.0215 14.5514 51.002 14.4342 50.9824 14.291C50.9694 14.1413 50.9564 13.985 50.9434 13.8223C50.9368 13.6595 50.9303 13.5033 50.9238 13.3535C50.9238 13.2038 50.9238 13.0801 50.9238 12.9824C50.9238 12.8197 50.9434 12.6667 50.9824 12.5234C51.0215 12.3737 51.041 12.2207 51.041 12.0645C51.041 11.8561 51.0247 11.651 50.9922 11.4492C50.9596 11.2474 50.9368 11.0456 50.9238 10.8438C50.9108 10.7331 50.9108 10.6224 50.9238 10.5117C50.9368 10.401 50.9434 10.2904 50.9434 10.1797C50.9434 10.0104 50.9173 9.86393 50.8652 9.74023C50.9043 9.71419 50.9368 9.67513 50.9629 9.62305C50.9954 9.57096 51.0215 9.51562 51.041 9.45703C51.0605 9.39193 51.0736 9.32682 51.0801 9.26172C51.0931 9.19661 51.0996 9.14128 51.0996 9.0957L51.041 9.03711C51.054 8.93945 51.0638 8.8418 51.0703 8.74414C51.0768 8.63997 51.0801 8.53906 51.0801 8.44141C51.0801 8.33724 51.0671 8.23958 51.041 8.14844C51.0215 8.05078 50.9824 7.96289 50.9238 7.88477C50.9108 7.7806 50.9206 7.68294 50.9531 7.5918C50.9857 7.50065 51.002 7.40951 51.002 7.31836L50.9824 7.16211C50.8327 7.14258 50.6764 7.13932 50.5137 7.15234C50.3509 7.15885 50.1947 7.16211 50.0449 7.16211C49.9408 7.16211 49.8366 7.16211 49.7324 7.16211C49.6283 7.1556 49.5306 7.13607 49.4395 7.10352C49.3418 6.96029 49.2409 6.82031 49.1367 6.68359C49.0326 6.54036 48.9805 6.3776 48.9805 6.19531C48.9805 5.98698 49.0326 5.80469 49.1367 5.64844C49.2409 5.49219 49.3418 5.32943 49.4395 5.16016C49.5176 5.15365 49.5957 5.13411 49.6738 5.10156C49.752 5.06901 49.8268 5.0332 49.8984 4.99414C49.9766 4.95508 50.0514 4.91927 50.123 4.88672C50.1947 4.85417 50.2695 4.83789 50.3477 4.83789C50.4844 4.83789 50.6146 4.8737 50.7383 4.94531C50.862 5.01042 50.9987 5.04297 51.1484 5.04297H51.2461C51.2786 4.97135 51.3079 4.89648 51.334 4.81836C51.3665 4.74023 51.3763 4.66211 51.3633 4.58398C51.3307 4.55794 51.3014 4.5319 51.2754 4.50586C51.2559 4.47331 51.2461 4.4375 51.2461 4.39844C51.2461 4.36589 51.2559 4.33984 51.2754 4.32031C51.2949 4.29427 51.3047 4.25521 51.3047 4.20312C51.3047 4.05339 51.2852 3.90365 51.2461 3.75391C51.207 3.59766 51.1875 3.43815 51.1875 3.27539C51.1875 3.14518 51.207 2.98568 51.2461 2.79688C51.2917 2.60807 51.347 2.41927 51.4121 2.23047C51.4837 2.03516 51.5651 1.85286 51.6562 1.68359C51.7474 1.51432 51.8418 1.38737 51.9395 1.30273C52.0241 1.28971 52.1055 1.2832 52.1836 1.2832C52.2617 1.2832 52.3431 1.2832 52.4277 1.2832C52.623 1.2832 52.7891 1.32552 52.9258 1.41016C53.0625 1.49479 53.1732 1.60547 53.2578 1.74219C53.3424 1.87891 53.4043 2.03516 53.4434 2.21094C53.4824 2.38021 53.502 2.54948 53.502 2.71875C53.502 2.82943 53.4727 2.96615 53.4141 3.12891C53.3555 3.29167 53.3262 3.46745 53.3262 3.65625C53.3262 3.80599 53.3327 3.96224 53.3457 4.125C53.3587 4.28125 53.3652 4.43424 53.3652 4.58398C53.3978 4.58398 53.4303 4.58073 53.4629 4.57422C53.4954 4.56771 53.528 4.56445 53.5605 4.56445C53.6908 4.56445 53.8145 4.58724 53.9316 4.63281C54.0488 4.67839 54.1725 4.70117 54.3027 4.70117C54.3939 4.70117 54.4688 4.68164 54.5273 4.64258C54.5794 4.64258 54.6217 4.6556 54.6543 4.68164C54.6868 4.70117 54.7129 4.72721 54.7324 4.75977C54.7585 4.78581 54.7845 4.8151 54.8105 4.84766C54.8431 4.8737 54.8822 4.88997 54.9277 4.89648C55.0254 4.85742 55.1165 4.80534 55.2012 4.74023C55.2923 4.67513 55.3932 4.62305 55.5039 4.58398H57.1836C57.2357 4.62305 57.2812 4.66536 57.3203 4.71094C57.3594 4.75651 57.4212 4.7793 57.5059 4.7793C57.5124 4.85742 57.5319 4.93229 57.5645 5.00391C57.6035 5.07552 57.6426 5.14714 57.6816 5.21875C57.7207 5.29036 57.7533 5.36523 57.7793 5.44336C57.8118 5.51497 57.8281 5.5931 57.8281 5.67773Z" fill="white"/>
<path d="M67.7891 8.63672C67.7891 8.79948 67.7663 8.98177 67.7207 9.18359C67.6751 9.38542 67.6035 9.57747 67.5059 9.75977C67.4147 9.93555 67.2975 10.0853 67.1543 10.209C67.0111 10.3262 66.8418 10.3848 66.6465 10.3848C66.4772 10.3848 66.3145 10.3424 66.1582 10.2578C66.002 10.1667 65.8652 10.0592 65.748 9.93555C65.6829 9.79883 65.6439 9.65885 65.6309 9.51562C65.6178 9.36589 65.569 9.22591 65.4844 9.0957C65.4714 9.08268 65.4648 9.05013 65.4648 8.99805C65.4648 8.92643 65.4779 8.85807 65.5039 8.79297C65.5299 8.72786 65.543 8.64974 65.543 8.55859C65.543 8.46094 65.556 8.36654 65.582 8.27539C65.6081 8.17773 65.6211 8.07357 65.6211 7.96289C65.6211 7.91081 65.582 7.81641 65.5039 7.67969C65.4323 7.54297 65.3477 7.40299 65.25 7.25977C65.1523 7.11003 65.0547 6.97656 64.957 6.85938C64.8659 6.73568 64.8008 6.66406 64.7617 6.64453C64.7422 6.63151 64.7194 6.63151 64.6934 6.64453C64.6673 6.65755 64.638 6.66406 64.6055 6.66406L64.5859 6.64453L64.5273 6.51758C64.3646 6.45247 64.2148 6.4069 64.0781 6.38086C63.9479 6.34831 63.8177 6.32552 63.6875 6.3125C63.5573 6.29948 63.4238 6.29297 63.2871 6.29297C63.1504 6.28646 63.0039 6.27669 62.8477 6.26367C62.7565 6.25065 62.6654 6.23763 62.5742 6.22461C62.4831 6.20508 62.3854 6.19531 62.2812 6.19531C62.2161 6.19531 62.125 6.2181 62.0078 6.26367C61.8906 6.30924 61.7702 6.36784 61.6465 6.43945C61.5293 6.50456 61.4186 6.57292 61.3145 6.64453C61.2103 6.71615 61.1419 6.78125 61.1094 6.83984C61.0703 6.88542 61.028 6.97982 60.9824 7.12305C60.9434 7.26628 60.9043 7.42253 60.8652 7.5918C60.8262 7.75456 60.7904 7.91406 60.7578 8.07031C60.7318 8.22656 60.7155 8.33724 60.709 8.40234C60.7415 8.48047 60.7871 8.55208 60.8457 8.61719C60.9043 8.67578 60.9629 8.73438 61.0215 8.79297C61.0866 8.85156 61.1419 8.91341 61.1875 8.97852C61.2396 9.04362 61.2721 9.125 61.2852 9.22266C61.4154 9.25521 61.5228 9.30078 61.6074 9.35938C61.6986 9.41146 61.7865 9.46354 61.8711 9.51562C61.9622 9.5612 62.0599 9.60026 62.1641 9.63281C62.2747 9.65885 62.4147 9.6556 62.584 9.62305C62.6686 9.69466 62.7565 9.76302 62.8477 9.82812C62.9453 9.89323 63.0299 9.97135 63.1016 10.0625C63.1341 10.0299 63.1732 10.0137 63.2188 10.0137C63.2643 10.0072 63.3132 10.0039 63.3652 10.0039H63.6094C63.694 10.056 63.7852 10.0983 63.8828 10.1309C63.987 10.1569 64.0879 10.1829 64.1855 10.209C64.2897 10.2285 64.3906 10.2513 64.4883 10.2773C64.5859 10.3034 64.6771 10.3457 64.7617 10.4043C64.8919 10.4759 64.9961 10.5768 65.0742 10.707C65.1523 10.8307 65.2435 10.9414 65.3477 11.0391C65.3867 11.026 65.4193 11.0163 65.4453 11.0098C65.4779 11.0033 65.5104 11 65.543 11C65.6406 11 65.7253 11.026 65.7969 11.0781C65.8685 11.1302 65.9369 11.1888 66.002 11.2539C66.0671 11.3125 66.1322 11.3743 66.1973 11.4395C66.2689 11.498 66.3503 11.5371 66.4414 11.5566C66.4674 11.6478 66.5 11.7389 66.5391 11.8301C66.5781 11.9212 66.6335 11.9993 66.7051 12.0645C66.6921 12.2012 66.6921 12.3411 66.7051 12.4844C66.7181 12.6211 66.7246 12.7546 66.7246 12.8848C66.7246 12.9824 66.7116 13.0768 66.6855 13.168C66.6595 13.2526 66.6465 13.3372 66.6465 13.4219C66.6465 13.4935 66.6595 13.5651 66.6855 13.6367C66.7116 13.7083 66.7409 13.7832 66.7734 13.8613C66.806 13.9395 66.8353 14.0176 66.8613 14.0957C66.8874 14.1673 66.9036 14.2422 66.9102 14.3203C66.8841 14.4115 66.8548 14.4896 66.8223 14.5547C66.7962 14.6198 66.7702 14.6849 66.7441 14.75C66.7246 14.8151 66.7083 14.8835 66.6953 14.9551C66.6888 15.0267 66.6921 15.1146 66.7051 15.2188C66.5814 15.3685 66.4837 15.5312 66.4121 15.707C66.3405 15.8828 66.2461 16.0456 66.1289 16.1953L66.002 16.2637V16.3809L65.8652 16.459C65.8327 16.5371 65.8099 16.5892 65.7969 16.6152C65.7839 16.6413 65.7676 16.6576 65.748 16.6641C65.735 16.6771 65.7122 16.6901 65.6797 16.7031C65.6471 16.7161 65.6016 16.7422 65.543 16.7812C65.4844 16.8203 65.4355 16.8724 65.3965 16.9375C65.3574 17.0026 65.3021 17.0579 65.2305 17.1035C65.1263 17.1621 65.0091 17.1947 64.8789 17.2012C64.7552 17.2142 64.638 17.2467 64.5273 17.2988C64.4232 17.3379 64.3255 17.3965 64.2344 17.4746C64.1432 17.5527 64.0456 17.6016 63.9414 17.6211C63.8242 17.6406 63.6973 17.6439 63.5605 17.6309C63.4303 17.6243 63.3066 17.6211 63.1895 17.6211C63.0788 17.6211 62.9714 17.6309 62.8672 17.6504C62.763 17.6699 62.6556 17.6797 62.5449 17.6797C62.4082 17.6797 62.2682 17.6667 62.125 17.6406C61.9818 17.6146 61.8385 17.5853 61.6953 17.5527C61.5586 17.5202 61.4186 17.4909 61.2754 17.4648C61.1322 17.4388 60.9889 17.4225 60.8457 17.416C60.8001 17.3509 60.748 17.3021 60.6895 17.2695C60.6309 17.2435 60.569 17.224 60.5039 17.2109C60.4388 17.2044 60.3737 17.1947 60.3086 17.1816C60.2435 17.1686 60.1816 17.1426 60.123 17.1035C60.0449 17.0449 59.9701 16.9798 59.8984 16.9082C59.8333 16.8366 59.765 16.765 59.6934 16.6934C59.6217 16.6217 59.5469 16.5534 59.4688 16.4883C59.3971 16.4232 59.3158 16.3678 59.2246 16.3223C59.2181 16.2637 59.1888 16.1628 59.1367 16.0195C59.0911 15.8828 59.0391 15.7396 58.9805 15.5898C58.9284 15.4401 58.8796 15.2969 58.834 15.1602C58.7884 15.0169 58.7656 14.916 58.7656 14.8574C58.7656 14.7207 58.7754 14.5807 58.7949 14.4375C58.8145 14.2943 58.8242 14.1478 58.8242 13.998C58.8242 13.9004 58.86 13.8027 58.9316 13.7051C59.0033 13.6009 59.0911 13.5098 59.1953 13.4316C59.2995 13.347 59.4102 13.2819 59.5273 13.2363C59.6445 13.1842 59.7454 13.1582 59.8301 13.1582C60.0059 13.1582 60.1719 13.2005 60.3281 13.2852C60.4909 13.3698 60.6439 13.4609 60.7871 13.5586C60.7936 13.6693 60.8066 13.8027 60.8262 13.959C60.8457 14.1152 60.8783 14.2715 60.9238 14.4277C60.9694 14.584 61.028 14.7305 61.0996 14.8672C61.1712 14.9974 61.2591 15.0951 61.3633 15.1602C61.3958 15.1797 61.4251 15.1895 61.4512 15.1895C61.4837 15.1895 61.5163 15.1992 61.5488 15.2188L61.6074 15.3555C61.6465 15.3685 61.6986 15.3685 61.7637 15.3555C61.8288 15.3424 61.8776 15.3359 61.9102 15.3359C61.9557 15.3359 61.9883 15.3424 62.0078 15.3555C62.0339 15.3685 62.0534 15.3848 62.0664 15.4043C62.0859 15.4173 62.1022 15.4336 62.1152 15.4531C62.1283 15.4661 62.151 15.4759 62.1836 15.4824C62.2682 15.502 62.3561 15.5117 62.4473 15.5117C62.5384 15.5052 62.623 15.502 62.7012 15.502C62.7923 15.502 62.8802 15.5085 62.9648 15.5215C63.056 15.5345 63.1439 15.5671 63.2285 15.6191C63.2806 15.5801 63.349 15.5508 63.4336 15.5312C63.5247 15.5052 63.6159 15.4824 63.707 15.4629C63.7982 15.4434 63.8828 15.4206 63.9609 15.3945C64.0391 15.3685 64.0944 15.3359 64.127 15.2969C64.2376 15.1602 64.3483 15.0104 64.459 14.8477C64.5697 14.6849 64.6706 14.5286 64.7617 14.3789C64.7487 14.2357 64.7487 14.0957 64.7617 13.959C64.7747 13.8158 64.7812 13.6693 64.7812 13.5195C64.7812 13.3698 64.7617 13.2493 64.7227 13.1582C64.6836 13.0605 64.638 12.9727 64.5859 12.8945C64.5404 12.8164 64.4915 12.7383 64.4395 12.6602C64.3874 12.582 64.3483 12.4876 64.3223 12.377C64.2637 12.3509 64.1986 12.3281 64.127 12.3086C64.0553 12.2891 63.9805 12.2663 63.9023 12.2402C63.8307 12.2142 63.7624 12.1849 63.6973 12.1523C63.6322 12.1133 63.5801 12.0612 63.541 11.9961C63.3848 11.9961 63.2415 11.9733 63.1113 11.9277C62.9811 11.8757 62.8444 11.8138 62.7012 11.7422C62.623 11.7617 62.5482 11.7747 62.4766 11.7812C62.4049 11.7812 62.3268 11.7812 62.2422 11.7812C62.0664 11.7812 61.8971 11.7585 61.7344 11.7129C61.5781 11.6608 61.4251 11.6087 61.2754 11.5566C61.1257 11.5046 60.9759 11.459 60.8262 11.4199C60.6829 11.3743 60.5365 11.3548 60.3867 11.3613C60.3151 11.2702 60.2142 11.1628 60.084 11.0391C59.9538 10.9154 59.8203 10.7917 59.6836 10.668C59.5534 10.5443 59.4329 10.4303 59.3223 10.3262C59.2116 10.2155 59.14 10.1276 59.1074 10.0625C59.0553 9.98438 59.013 9.89974 58.9805 9.80859C58.9544 9.71094 58.9251 9.61654 58.8926 9.52539C58.8665 9.43425 58.834 9.34635 58.7949 9.26172C58.7624 9.17708 58.7135 9.10221 58.6484 9.03711C58.7005 8.93294 58.7266 8.8125 58.7266 8.67578C58.7266 8.55859 58.7135 8.44466 58.6875 8.33398C58.6615 8.2168 58.6484 8.09961 58.6484 7.98242C58.6484 7.88477 58.6615 7.79688 58.6875 7.71875C58.7135 7.63411 58.7396 7.54948 58.7656 7.46484C58.7982 7.38021 58.8242 7.29232 58.8438 7.20117C58.8633 7.11003 58.8633 7.00911 58.8438 6.89844C59.2214 6.42969 59.5632 5.91536 59.8691 5.35547C59.9603 5.28385 60.0579 5.22201 60.1621 5.16992C60.2728 5.11784 60.3672 5.05599 60.4453 4.98438C60.6732 4.79557 60.8978 4.65234 61.1191 4.55469C61.3405 4.45052 61.6042 4.39844 61.9102 4.39844C62.0078 4.39844 62.099 4.37565 62.1836 4.33008C62.2682 4.27799 62.3561 4.23568 62.4473 4.20312C62.5124 4.18359 62.5905 4.16732 62.6816 4.1543C62.7793 4.14128 62.8802 4.13151 62.9844 4.125C63.0885 4.11849 63.1862 4.11523 63.2773 4.11523C63.375 4.11523 63.4564 4.11523 63.5215 4.11523C63.7103 4.11523 63.8796 4.14128 64.0293 4.19336C64.179 4.23893 64.3385 4.26172 64.5078 4.26172C64.5859 4.26172 64.6641 4.29427 64.7422 4.35938C64.8203 4.42448 64.8952 4.47656 64.9668 4.51562C65.1751 4.6263 65.3867 4.73047 65.6016 4.82812C65.8229 4.92578 66.0443 5.01693 66.2656 5.10156C66.3242 5.19271 66.3893 5.27409 66.4609 5.3457C66.5391 5.41081 66.6172 5.47591 66.6953 5.54102C66.7799 5.59961 66.8613 5.66146 66.9395 5.72656C67.0176 5.79167 67.0924 5.86328 67.1641 5.94141C67.2227 6.15625 67.2878 6.3776 67.3594 6.60547C67.431 6.82682 67.4961 7.05143 67.5547 7.2793C67.6198 7.50065 67.6751 7.72852 67.7207 7.96289C67.7663 8.19075 67.7891 8.41536 67.7891 8.63672Z" fill="white"/>
</svg>
