<svg width="38" height="38" viewBox="0 0 38 38" fill="none" xmlns="http://www.w3.org/2000/svg">
<path d="M11.6721 31.9997C12.3723 32.0077 13.0648 31.8555 13.6956 31.5551C14.3263 31.2546 14.8781 30.8141 15.3078 30.2679C15.7376 29.7217 16.0336 29.0846 16.1727 28.4066C16.3118 27.7285 16.2902 27.0279 16.1096 26.3594L24.3209 21.7223C25.0136 22.3493 25.8845 22.7509 26.8159 22.8726C27.7472 22.9943 28.6939 22.8303 29.5277 22.4028C30.3616 21.9753 31.0424 21.305 31.4778 20.4825C31.9133 19.6601 32.0825 18.7253 31.9624 17.8047C31.8424 16.8841 31.4389 16.0222 30.8066 15.3357C30.1743 14.6492 29.3438 14.1713 28.4275 13.9666C27.5112 13.7619 26.5533 13.8404 25.6837 14.1914C24.814 14.5425 24.0745 15.1491 23.5654 15.9291L16.1109 11.7183C16.2074 11.3583 16.2585 10.9879 16.2631 10.6154C16.2722 9.56337 15.9142 8.54033 15.2492 7.71858C14.5843 6.89682 13.653 6.32655 12.6124 6.10377C11.5717 5.88099 10.4851 6.01933 9.53551 6.49547C8.58596 6.97162 7.83146 7.7565 7.39906 8.71796C6.96666 9.67941 6.88276 10.7587 7.1615 11.7741C7.44023 12.7895 8.06458 13.6791 8.9294 14.2929C9.79422 14.9067 10.8467 15.2074 11.9096 15.1442C12.9725 15.0811 13.981 14.658 14.7651 13.9462L22.8321 18.5017C22.8413 18.8387 22.8885 19.1717 22.9751 19.497L14.7638 24.1329C14.2142 23.6346 13.5499 23.2763 12.8284 23.0891C12.1069 22.9019 11.3501 22.8915 10.6236 23.0588C9.89717 23.226 9.22298 23.5659 8.65957 24.0489C8.09617 24.532 7.66056 25.1435 7.39055 25.8306C7.12055 26.5176 7.02429 27.2593 7.11014 27.9915C7.196 28.7236 7.46136 29.4239 7.88322 30.0318C8.30507 30.6396 8.87067 31.1365 9.53094 31.4795C10.1912 31.8224 10.9262 32.001 11.6721 31.9997ZM11.6721 25.5196C12.194 25.5196 12.6944 25.7244 13.0634 26.089C13.4324 26.4536 13.6397 26.9481 13.6397 27.4636C13.6397 27.9792 13.4324 28.4737 13.0634 28.8383C12.6944 29.2029 12.194 29.4077 11.6721 29.4077C11.1503 29.4077 10.6498 29.2029 10.2809 28.8383C9.91187 28.4737 9.70457 27.9792 9.70457 27.4636C9.70457 26.9481 9.91187 26.4536 10.2809 26.089C10.6498 25.7244 11.1503 25.5196 11.6721 25.5196ZM27.4126 16.4475C27.9344 16.4475 28.4349 16.6523 28.8039 17.0169C29.1729 17.3815 29.3801 17.8759 29.3801 18.3915C29.3801 18.9071 29.1729 19.4016 28.8039 19.7662C28.4349 20.1307 27.9344 20.3356 27.4126 20.3356C26.8908 20.3356 26.3903 20.1307 26.0213 19.7662C25.6523 19.4016 25.445 18.9071 25.445 18.3915C25.445 17.8759 25.6523 17.3815 26.0213 17.0169C26.3903 16.6523 26.8908 16.4475 27.4126 16.4475ZM11.6721 8.67141C11.9305 8.67141 12.1864 8.72169 12.4251 8.81939C12.6638 8.91709 12.8807 9.06028 13.0634 9.2408C13.2461 9.42132 13.391 9.63563 13.4899 9.87149C13.5888 10.1073 13.6397 10.3601 13.6397 10.6154C13.6397 10.8707 13.5888 11.1235 13.4899 11.3594C13.391 11.5952 13.2461 11.8095 13.0634 11.9901C12.8807 12.1706 12.6638 12.3138 12.4251 12.4115C12.1864 12.5092 11.9305 12.5595 11.6721 12.5595C11.1503 12.5595 10.6498 12.3546 10.2809 11.9901C9.91187 11.6255 9.70457 11.131 9.70457 10.6154C9.70457 10.0998 9.91187 9.60538 10.2809 9.2408C10.6498 8.87623 11.1503 8.67141 11.6721 8.67141Z" fill="#FF8753"/>
</svg>
