<svg width="38" height="38" viewBox="0 0 38 38" fill="none" xmlns="http://www.w3.org/2000/svg">
<path d="M14.3615 16.4394H18.7404V11.4668C18.7404 11.3035 18.874 11.1699 19.0373 11.1699H21.2638C21.4271 11.1699 21.5607 11.3035 21.5607 11.4668V16.4394H25.9396C26.1029 16.4394 26.2365 16.573 26.2365 16.7363V18.9629C26.2365 19.1261 26.1029 19.2597 25.9396 19.2597H21.5607V24.2324C21.5607 24.3957 21.4271 24.5293 21.2638 24.5293H19.0373C18.874 24.5293 18.7404 24.3957 18.7404 24.2324V19.2597H14.3615C14.1982 19.2597 14.0646 19.1261 14.0646 18.9629V16.7363C14.0646 16.573 14.1982 16.4394 14.3615 16.4394ZM3.82241 32.1738L9.24038 26.7558C4.70932 21.2303 5.02475 13.0439 10.2052 7.86716C15.6974 2.37126 24.6185 2.37126 30.133 7.86716C35.6289 13.3816 35.6289 22.3027 30.133 27.7949C24.9562 32.9754 16.7699 33.2908 11.2443 28.7597L5.82632 34.1777C5.70757 34.2816 5.51831 34.2816 5.41811 34.1777L3.82241 32.582C3.7185 32.4818 3.7185 32.2926 3.82241 32.1738ZM12.172 25.8281C16.5806 30.233 23.7205 30.233 28.1291 25.8281C32.5339 21.4195 32.5339 14.2797 28.1291 9.87107C23.7205 5.46619 16.5806 5.46619 12.172 9.87107C7.76714 14.2797 7.76714 21.4195 12.172 25.8281Z" fill="#F58A5C"/>
</svg>
