<svg width="106" height="106" viewBox="0 0 106 106" fill="none" xmlns="http://www.w3.org/2000/svg">
<path d="M59.6251 44.1666C59.6251 43.2881 59.2761 42.4456 58.6549 41.8244C58.0337 41.2031 57.1912 40.8541 56.3126 40.8541H47.4793V32.0208C47.4793 31.1423 47.1303 30.2997 46.5091 29.6785C45.8879 29.0573 45.0453 28.7083 44.1668 28.7083C43.2883 28.7083 42.4457 29.0573 41.8245 29.6785C41.2033 30.2997 40.8543 31.1423 40.8543 32.0208V40.8541H32.021C31.1424 40.8541 30.2999 41.2031 29.6787 41.8244C29.0575 42.4456 28.7085 43.2881 28.7085 44.1666C28.7085 45.0452 29.0575 45.8877 29.6787 46.5089C30.2999 47.1301 31.1424 47.4791 32.021 47.4791H40.8543V56.3125C40.8543 57.191 41.2033 58.0336 41.8245 58.6548C42.4457 59.276 43.2883 59.625 44.1668 59.625C45.0453 59.625 45.8879 59.276 46.5091 58.6548C47.1303 58.0336 47.4793 57.191 47.4793 56.3125V47.4791H56.3126C57.1912 47.4791 58.0337 47.1301 58.6549 46.5089C59.2761 45.8877 59.6251 45.0452 59.6251 44.1666ZM44.1668 12.1458C50.2181 12.1451 56.1457 13.859 61.2628 17.089C66.3799 20.319 70.477 24.9329 73.0793 30.396C75.6817 35.8591 76.6828 41.9478 75.9666 47.9565C75.2503 53.9652 72.8462 59.648 69.0326 64.3464L90.6743 85.9881C91.2685 86.5784 91.617 87.3719 91.6497 88.2088C91.6824 89.0458 91.3968 89.8641 90.8504 90.4989C90.304 91.1337 89.5374 91.538 88.7049 91.6303C87.8724 91.7227 87.0359 91.4962 86.3636 90.9966L85.9926 90.6741L64.3466 69.0325C60.3666 72.2616 55.6697 74.4882 50.6506 75.5252C45.6314 76.5622 40.4367 76.3792 35.503 74.9917C30.5692 73.6043 26.0406 71.0528 22.2977 67.5517C18.5547 64.0506 15.7069 59.7022 13.9934 54.872C12.28 50.0417 11.751 44.8708 12.4509 39.7937C13.1508 34.7165 15.0592 29.8816 18.0157 25.6952C20.9722 21.5087 24.8904 18.0931 29.441 15.7353C33.9916 13.3776 39.0417 12.1466 44.1668 12.1458ZM44.1668 18.7708C40.8318 18.7708 37.5294 19.4277 34.4482 20.704C31.3671 21.9802 28.5675 23.8509 26.2092 26.2091C23.851 28.5673 21.9804 31.3669 20.7041 34.4481C19.4279 37.5292 18.771 40.8316 18.771 44.1666C18.771 47.5017 19.4279 50.804 20.7041 53.8852C21.9804 56.9664 23.851 59.766 26.2092 62.1242C28.5675 64.4824 31.3671 66.3531 34.4482 67.6293C37.5294 68.9056 40.8318 69.5625 44.1668 69.5625C50.9022 69.5625 57.3617 66.8869 62.1244 62.1242C66.887 57.3616 69.5626 50.902 69.5626 44.1666C69.5626 37.4313 66.887 30.9717 62.1244 26.2091C57.3617 21.4464 50.9022 18.7708 44.1668 18.7708Z" fill="white" fill-opacity="0.7"/>
</svg>
